<?xml version="1.0" encoding="utf-8"?><svg xmlns="http://www.w3.org/2000/svg" xmlns:xlink="http://www.w3.org/1999/xlink"><symbol fill="none" viewBox="0 0 14 14" id="ico-arrow-circle" xmlns="http://www.w3.org/2000/svg"><path d="M7 14A7 7 0 1 0 7 0a7 7 0 0 0 0 14z" fill="#FF736D"/><path d="M5.8 4.7L8.2 7 5.8 9.3" stroke="#fff" stroke-miterlimit="10"/></symbol><symbol fill="none" viewBox="0 0 14 14" id="ico-bonus" xmlns="http://www.w3.org/2000/svg"><path d="M12.77 3.281H11.1a2.04 2.04 0 0 0 .412-1.23C11.512.92 10.592 0 9.46 0c-.68 0-1.183.244-1.58.768-.333.438-.576 1.05-.881 1.824-.305-.774-.548-1.386-.88-1.824C5.723.244 5.22 0 4.54 0 3.407 0 2.487.92 2.487 2.05c0 .462.153.888.412 1.231H1.23c-.678 0-1.23.552-1.23 1.23v.821c0 .535.343.99.82 1.16v6.278c0 .678.552 1.23 1.23 1.23h9.9c.678 0 1.23-.552 1.23-1.23V6.492c.477-.17.82-.625.82-1.16v-.82c0-.679-.552-1.23-1.23-1.23zM7.753 2.92C8.38 1.325 8.62.82 9.46.82a1.232 1.232 0 0 1 0 2.461H7.609l.144-.362zM4.539.82c.84 0 1.08.505 1.708 2.099l.144.362H4.539a1.231 1.231 0 0 1 0-2.46zm.82 12.36H2.051a.41.41 0 0 1-.41-.41V6.563h3.718v6.617zm0-7.438H1.23a.41.41 0 0 1-.41-.41v-.82a.41.41 0 0 1 .41-.41h4.13v1.64zM7.82 13.18H6.18V4.102h1.64v9.078zm4.54-.41a.41.41 0 0 1-.41.41H8.64V6.563h3.72v6.207zm.82-7.438a.41.41 0 0 1-.41.41H8.64v-1.64h4.13a.41.41 0 0 1 .41.41v.82z" fill="#FF736D"/></symbol><symbol fill="none" viewBox="0 0 67.03 19.63" id="ico-dev" xmlns="http://www.w3.org/2000/svg"><path d="M67 14.91c-.197.83-.16.669-.94.673h-5.879c-.66 0-.875-.211-.875-.868V4.812c0-.673.198-.875.861-.875h6.222c.385 0 .476.045.497.42.026.35.026.7 0 1.05-.017.252-.157.373-.435.37h-4.762v2.855c.1 0 .2.011.3.011h3.805c.347 0 .447.067.476.419.029.32.029.643 0 .963-.031.352-.13.421-.476.421H61.68v3.292h4.652c.506 0 .537.028.62.525.012.046.028.09.048.133v.514zM19.441 9.887a32.94 32.94 0 0 1-.63 6.343 3.543 3.543 0 0 1-2.878 2.671c-2.61.472-5.268.638-7.917.495a44.677 44.677 0 0 1-4.607-.533C1.832 18.601.793 17.405.52 15.771a36.537 36.537 0 0 1-.513-6.787c.035-1.9.23-3.794.582-5.66A3.586 3.586 0 0 1 3.53.54a33.984 33.984 0 0 1 7.804-.495c1.553.097 3.101.271 4.637.523 1.613.255 2.664 1.427 2.95 3.132.34 2.045.514 4.114.52 6.186zM2.051 9.65c-.016 1.92.13 3.838.44 5.732.171.951.547 1.401 1.494 1.537 1.22.173 2.447.328 3.676.402 2.543.172 5.096.054 7.611-.352 1.07-.181 1.489-.543 1.665-1.549.172-.944.289-1.896.35-2.854.07-1.538.116-3.092.052-4.618-.057-1.354-.238-2.702-.435-4.043-.122-.864-.557-1.273-1.427-1.387-1.287-.169-2.571-.335-3.858-.41a31.726 31.726 0 0 0-7.61.398c-.952.178-1.347.59-1.52 1.55A33.372 33.372 0 0 0 2.05 9.65zm51.319.891h-1.886c-.45 0-.559-.09-.573-.542-.006-.303.01-.606.047-.906a.313.313 0 0 1 .362-.285H55a.592.592 0 0 1 .638.646c.014.476 0 .97 0 1.456v3.168c0 .62-.098.77-.673.963-1.646.554-3.33.74-5.026.328-2.111-.511-3.503-2.04-3.833-4.185a7.502 7.502 0 0 1 .214-3.525c.713-2.188 2.27-3.377 4.518-3.7a7.342 7.342 0 0 1 3.63.337c1.15.423 1.272.602 1.189 1.92 0 .037 0 .075-.014.113-.062.438-.203.512-.585.293a6.034 6.034 0 0 0-3.092-.868c-1.843.016-3.197 1.132-3.518 2.947a5.231 5.231 0 0 0 .26 2.97 3.375 3.375 0 0 0 4.44 1.762c.093-.04.21-.159.211-.238.027-.872.01-1.736.01-2.654zM42.594 15.61c-.295-.017-.587-.027-.882-.048a.452.452 0 0 1-.424-.36c-.223-.696-.475-1.383-.69-2.08a.265.265 0 0 0-.304-.217h-3.907a.259.259 0 0 0-.295.224c-.21.67-.443 1.334-.645 2.005a.535.535 0 0 1-.528.433c-.475.016-.932.028-1.396 0-.342-.02-.447-.188-.352-.53.11-.393.238-.778.383-1.164 1.083-3.12 2.167-6.24 3.254-9.36.157-.455.27-.552.74-.56h1.823a.713.713 0 0 1 .73.545c1.164 3.374 2.337 6.745 3.518 10.113.052.142.096.287.13.435.082.359-.013.5-.387.528-.254.021-.514 0-.77 0l.002.036zm-5.898-4.52h3.28L38.36 6.24c-.576 1.548-1.09 3.092-1.601 4.621-.021.069-.033.13-.062.236l-.002-.005zm-11.071.448v3.605a.351.351 0 0 1-.302.407 4.163 4.163 0 0 1-1.753 0 .337.337 0 0 1-.297-.38V4.728a.715.715 0 0 1 .785-.787c1.331 0 2.663-.031 3.993.033.614.036 1.22.172 1.79.402 1.211.475 1.841 1.443 1.917 2.728a5.469 5.469 0 0 1-.137 1.607c-.402 1.627-1.568 2.426-3.142 2.704-.48.07-.962.109-1.446.115-.455.021-.911.007-1.408.007zm.014-1.817h1.625c1.24 0 1.921-.628 2.047-1.86.1-.973-.335-1.772-1.144-1.993-.808-.221-1.665-.09-2.53-.119l.002 3.972z" fill="#fff"/><path d="M8.135 9.766C7.58 9.212 7.085 8.724 6.6 8.232c-.543-.557-1.104-1.106-1.63-1.674-.475-.526-.475-1.14 0-1.603a1.144 1.144 0 0 1 1.665-.022c.973.937 1.917 1.903 2.869 2.854.077.093.146.191.207.295.138-.13.214-.2.285-.273l2.742-2.747c.33-.33.714-.554 1.19-.455a1.156 1.156 0 0 1 .649 1.95c-.53.583-1.102 1.13-1.665 1.69-.49.49-.985.974-1.49 1.471.098.103.167.179.239.253l2.882 2.887a1.21 1.21 0 0 1 .076 1.648 1.144 1.144 0 0 1-1.679.078c-.116-.097-.223-.207-.33-.313-.88-.88-1.756-1.761-2.626-2.643a2.154 2.154 0 0 1-.164-.204c-.519.502-1.006.968-1.486 1.439-.59.58-1.159 1.189-1.763 1.743a1.13 1.13 0 0 1-1.634-.067 1.19 1.19 0 0 1 .038-1.665c.952-.965 1.91-1.93 2.876-2.892.09-.078.184-.15.283-.216z" fill="#fff"/></symbol><symbol fill="none" viewBox="0 0 7.03 13" id="ico-fb" xmlns="http://www.w3.org/2000/svg"><path d="M6.764.003L5.078 0C3.184 0 1.96 1.256 1.96 3.2v1.474H.265A.265.265 0 0 0 0 4.94v2.137c0 .146.119.265.265.265H1.96v5.393c0 .146.119.265.265.265h2.212a.265.265 0 0 0 .265-.265V7.342h1.982a.265.265 0 0 0 .265-.265V4.94a.265.265 0 0 0-.265-.266H4.702v-1.25c0-.601.143-.906.926-.906h1.136a.265.265 0 0 0 .264-.266V.268a.265.265 0 0 0-.264-.265z" fill="#fff"/></symbol><symbol fill="none" viewBox="0 0 7.03 13" id="ico-fb-maincolor" xmlns="http://www.w3.org/2000/svg"><path d="M6.764.003L5.078 0C3.184 0 1.96 1.256 1.96 3.2v1.474H.265A.265.265 0 0 0 0 4.94v2.137c0 .146.119.265.265.265H1.96v5.393c0 .146.119.265.265.265h2.212a.265.265 0 0 0 .265-.265V7.342h1.982a.265.265 0 0 0 .265-.265V4.94a.265.265 0 0 0-.265-.266H4.702v-1.25c0-.601.143-.906.926-.906h1.136a.265.265 0 0 0 .264-.266V.268a.265.265 0 0 0-.264-.265z" fill="#dc6e65"/></symbol><symbol fill="none" viewBox="0 0 12 12" id="ico-insta" xmlns="http://www.w3.org/2000/svg"><path d="M8.537 0H3.464A3.464 3.464 0 0 0 0 3.464v5.072A3.464 3.464 0 0 0 3.464 12h5.073a3.464 3.464 0 0 0 3.464-3.464V3.464A3.464 3.464 0 0 0 8.537 0zm2.359 8.626a2.3 2.3 0 0 1-2.3 2.3H3.404a2.3 2.3 0 0 1-2.3-2.3V3.434a2.3 2.3 0 0 1 2.3-2.3h5.192a2.3 2.3 0 0 1 2.3 2.3v5.192z" fill="#fff"/><path d="M6 2.916a3.114 3.114 0 1 0 0 6.227 3.114 3.114 0 0 0 0-6.227zm0 5.133a2.019 2.019 0 1 1 .001-4.038 2.019 2.019 0 0 1 0 4.038zm3.219-4.525a.725.725 0 1 0 0-1.451.725.725 0 0 0 0 1.45z" fill="#fff"/></symbol><symbol fill="none" viewBox="0 0 12 12" id="ico-insta-maincolor" xmlns="http://www.w3.org/2000/svg"><path d="M8.537 0H3.464A3.464 3.464 0 0 0 0 3.464v5.072A3.464 3.464 0 0 0 3.464 12h5.073a3.464 3.464 0 0 0 3.464-3.464V3.464A3.464 3.464 0 0 0 8.537 0zm2.359 8.626a2.3 2.3 0 0 1-2.3 2.3H3.404a2.3 2.3 0 0 1-2.3-2.3V3.434a2.3 2.3 0 0 1 2.3-2.3h5.192a2.3 2.3 0 0 1 2.3 2.3v5.192z" fill="#dc6e65"/><path d="M6 2.916a3.114 3.114 0 1 0 0 6.227 3.114 3.114 0 0 0 0-6.227zm0 5.133a2.019 2.019 0 1 1 .001-4.038 2.019 2.019 0 0 1 0 4.038zm3.219-4.525a.725.725 0 1 0 0-1.451.725.725 0 0 0 0 1.45z" fill="#dc6e65"/></symbol><symbol viewBox="0 0 221.506 297.001" id="ico-marker" xmlns="http://www.w3.org/2000/svg"><path fill="#DB6D64" d="M110.753 0C49.683 0 0 49.703 0 110.797c0 91.026 99.729 179.905 103.976 183.645 1.936 1.705 4.356 2.559 6.777 2.559s4.841-.853 6.778-2.559c4.245-3.739 103.975-92.618 103.975-183.645C221.506 49.703 171.823 0 110.753 0z"/><g fill="#FFF"><path d="M110.74 189.884c-74.311-31.486-73.096-70.995-68.565-92.458 5.416-25.006 32.093-44.369 60.213-35.08.295.108.582.234.861.38a53.53 53.53 0 0 1 19.717-26.449 33.05 33.05 0 0 1 17.312 6.91c-24.171 13.49-34.447 25.766-39.104 51.81-18.35-17.059-41.003-4.277-40.952 17.363 0 8.884 4.126 35.713 50.62 55.682l23.893 10.124a212.625 212.625 0 0 1-23.995 11.718z"/><path d="M179.204 127.545a6.262 6.262 0 0 1-.177.658c-.177.683-.38 1.392-.582 2.101 0 .202 0 .43-.202.633-.253.835-.557 1.67-.861 2.531v.177a57.094 57.094 0 0 1-1.139 2.809c-.01.101-.01.203 0 .304-.354.759-.709 1.544-1.088 2.303-.152.354-.329.709-.506 1.038s-.532 1.012-.81 1.519-.532.962-.81 1.443l-.532.911a79.45 79.45 0 0 1-16.604 19.008l3.543 8.555-33.207-11.946 15.439-30.701 3.442 8.352c24.045-21.691 11.263-61.2-20.957-45.432a42.357 42.357 0 0 0-12.478 14.148c2.126-19.539 7.593-37.687 29.689-40.319a13.144 13.144 0 0 1 2.227 0c19.944.962 32.271 16.35 35.789 31.79a64.416 64.416 0 0 1-.176 30.118z"/></g></symbol><symbol fill="none" viewBox="0 0 56 55.04" id="ico-package-faq-1" xmlns="http://www.w3.org/2000/svg"><path d="M42.236 4.345c-.475 0-.874-.34-1.047-.783a4.835 4.835 0 0 0-4.5-3.08.965.965 0 1 0 0 1.932 2.9 2.9 0 0 1 2.897 2.896 2.9 2.9 0 0 1-2.896 2.897.965.965 0 1 0 0 1.931 4.836 4.836 0 0 0 4.5-3.08c.172-.442.571-.782 1.046-.782H53.07a1 1 0 0 1 1 1v6.69a1 1 0 0 1-1 1H2.931a1 1 0 0 1-1-1v-6.69a1 1 0 0 1 1-1h15.414a.965.965 0 1 0 0-1.931h-.336c-.69 0-1.151-.703-.643-1.171a2.859 2.859 0 0 1 1.944-.76 2.9 2.9 0 0 1 2.897 2.896 2.9 2.9 0 0 1-2.897 2.897.965.965 0 1 0 0 1.931 4.833 4.833 0 0 0 4.828-4.828A4.833 4.833 0 0 0 19.31.483a4.836 4.836 0 0 0-4.5 3.08c-.172.442-.571.782-1.046.782H1a1 1 0 0 0-1 1v49.172a1 1 0 0 0 1 1h54a1 1 0 0 0 1-1V5.345a1 1 0 0 0-1-1H42.236zM54.07 52.586a1 1 0 0 1-1 1H2.931a1 1 0 0 1-1-1v-34.69a1 1 0 0 1 1-1h50.138a1 1 0 0 1 1 1v34.69z" fill="#FF736D"/><path d="M25.103 2.414A2.9 2.9 0 0 1 28 5.31a2.9 2.9 0 0 1-2.897 2.897.965.965 0 1 0 0 1.931 4.833 4.833 0 0 0 4.828-4.828A4.833 4.833 0 0 0 25.103.483a.965.965 0 1 0 0 1.93z" fill="#FF736D"/><path d="M30.896 2.414a2.9 2.9 0 0 1 2.897 2.896 2.9 2.9 0 0 1-2.896 2.897.965.965 0 1 0 0 1.931 4.833 4.833 0 0 0 4.827-4.828A4.833 4.833 0 0 0 30.897.483a.965.965 0 1 0 0 1.93zM21.241 24.62a.965.965 0 1 0 0-1.93.965.965 0 0 0 0 1.93zm6.759 0a.965.965 0 1 0 0-1.93.965.965 0 0 0 0 1.93zm6.759 0a.965.965 0 1 0 0-1.93.965.965 0 0 0 0 1.93zm6.758 0a.965.965 0 1 0 0-1.93.965.965 0 0 0 0 1.93zm6.759 0a.965.965 0 1 0 0-1.93.965.965 0 0 0 0 1.93zM7.724 32.345a.966.966 0 1 0 0-1.931.966.966 0 0 0 0 1.93zm6.759 0a.966.966 0 1 0 0-1.931.966.966 0 0 0 0 1.93zm6.758 0a.966.966 0 1 0 0-1.931.966.966 0 0 0 0 1.93zm6.759 0a.966.966 0 1 0 0-1.931.966.966 0 0 0 0 1.93zm6.759 0a.965.965 0 1 0 0-1.931.965.965 0 0 0 0 1.93zm6.758 0a.966.966 0 1 0 0-1.931.966.966 0 0 0 0 1.93zm6.759 0a.966.966 0 1 0 0-1.931.966.966 0 0 0 0 1.93zM7.724 39.103a.966.966 0 1 0 0-1.93.966.966 0 0 0 0 1.93zm6.759 0a.966.966 0 1 0 0-1.93.966.966 0 0 0 0 1.93zm6.758 0a.966.966 0 1 0 0-1.93.966.966 0 0 0 0 1.93zm6.759 0a.966.966 0 1 0 0-1.93.966.966 0 0 0 0 1.93zm6.759 0a.965.965 0 1 0 0-1.93.965.965 0 0 0 0 1.93zm6.758 0a.966.966 0 1 0 0-1.93.966.966 0 0 0 0 1.93zm6.759 0a.966.966 0 1 0 0-1.93.966.966 0 0 0 0 1.93zM7.724 46.828a.965.965 0 1 0 0-1.931.965.965 0 0 0 0 1.93zm6.759 0a.965.965 0 1 0 0-1.931.965.965 0 0 0 0 1.93zm6.758 0a.965.965 0 1 0 0-1.931.965.965 0 0 0 0 1.93zm6.759 0a.965.965 0 1 0 0-1.931.965.965 0 0 0 0 1.93zm6.759 0a.965.965 0 1 0 0-1.931.965.965 0 0 0 0 1.93z" fill="#FF736D"/></symbol><symbol fill="none" viewBox="0 0 49.84 56" id="ico-package-faq-2" xmlns="http://www.w3.org/2000/svg"><path d="M52.798 53.133l-2.477-14.504a4.128 4.128 0 0 0-2.893-3.276l-6.682-2.016a7.447 7.447 0 0 0-5.172-6.472c.212-.235.408-.469.588-.698 1.589-2.02 2.44-4.247 2.656-5.766h.515a2.434 2.434 0 0 0 2.432-2.432v-1.246c0-.895-.503-1.706-1.26-2.126v-2.998a.82.82 0 0 0-1.64 0v3.365a5.057 5.057 0 0 0-1.206.367c-.088.04-.176.083-.264.13V8.853a3.315 3.315 0 0 0-3.311-3.312H31.82c-.78 0-1.543.272-2.148.767l-.222.181a2.297 2.297 0 0 1-1.45.518 2.297 2.297 0 0 1-1.45-.518l-.222-.181a3.403 3.403 0 0 0-2.148-.767h-2.263a3.315 3.315 0 0 0-3.312 3.312v6.608a4.158 4.158 0 0 0-.264-.13 5.059 5.059 0 0 0-1.206-.367V6.456a4.821 4.821 0 0 1 4.817-4.816h12.096a4.821 4.821 0 0 1 4.816 4.816v1.289a.82.82 0 1 0 1.64 0v-1.29A6.463 6.463 0 0 0 34.048 0H21.952a6.463 6.463 0 0 0-6.456 6.456v8.14a2.448 2.448 0 0 0-1.26 2.127v1.246a2.434 2.434 0 0 0 2.43 2.432h.516c.217 1.52 1.068 3.746 2.657 5.767.18.228.375.462.587.697a7.48 7.48 0 0 0-5.171 6.472l-6.682 2.016a4.128 4.128 0 0 0-2.894 3.276l-1.006 5.89a.82.82 0 1 0 1.617.276l1.006-5.89a2.497 2.497 0 0 1 1.75-1.982l6.18-1.864v1.622c-1.416.26-2.622 1.234-3.118 2.582a4.157 4.157 0 0 0-.243 1.114l-.598 7.666a2.09 2.09 0 0 0 .548 1.578 2.09 2.09 0 0 0 1.53.669h1.023a.82.82 0 1 0 0-1.64h-1.023a.445.445 0 0 1-.443-.48l.598-7.666c.018-.23.067-.458.147-.674.346-.938 1.278-1.573 2.321-1.58l.136-.002h.018c1.014 0 1.912.575 2.29 1.469.106.25.17.515.192.787l.598 7.667a.446.446 0 0 1-.443.479h-1.023a.82.82 0 1 0 0 1.64h1.023a2.09 2.09 0 0 0 1.53-.67c.393-.424.593-1 .548-1.577l-.598-7.666a4.155 4.155 0 0 0-.317-1.3c-.54-1.275-1.695-2.162-3.056-2.401v-2.112l2.82-.85c.256.54.764 1.707 1.771 4.223a685.438 685.438 0 0 1 3.515 9.035c.807 2.112 1.59 4.181 2.26 5.966a.82.82 0 0 0 1.536 0 1065.182 1065.182 0 0 1 2.29-6.044 683.304 683.304 0 0 1 3.483-8.952c1.008-2.52 1.517-3.688 1.773-4.229l2.82.85v4.845a4.25 4.25 0 0 0-3.433 4.164 4.248 4.248 0 0 0 4.243 4.243 4.248 4.248 0 0 0 4.243-4.243 4.25 4.25 0 0 0-3.413-4.16v-4.353l6.18 1.865a2.497 2.497 0 0 1 1.75 1.981l2.477 14.504a.801.801 0 0 1-.18.662.802.802 0 0 1-.622.289H5.62a.802.802 0 0 1-.62-.29.802.802 0 0 1-.18-.661l.817-4.787a.82.82 0 1 0-1.617-.276l-.817 4.787a2.45 2.45 0 0 0 .543 1.995A2.45 2.45 0 0 0 5.621 56H50.38a2.45 2.45 0 0 0 1.876-.872 2.45 2.45 0 0 0 .543-1.995zM38.874 16.635a3.52 3.52 0 0 1 .792-.107.84.84 0 0 0 .4-.095c.037.09.059.188.059.29v1.246a.792.792 0 0 1-.792.792h-.459v-2.126zM17.126 18.76h-.46a.792.792 0 0 1-.79-.792v-1.246c0-.102.021-.2.057-.29.122.064.26.097.401.095.006.001.356-.001.792.107v2.126zm1.64.92v-2.155a1.149 1.149 0 0 0 1.48-1.103v-7.57c0-.922.75-1.671 1.67-1.671h2.264c.403 0 .797.14 1.11.395l.222.182c.7.572 1.584.888 2.488.888.904 0 1.788-.316 2.488-.888l.222-.182a1.758 1.758 0 0 1 1.11-.395h2.263c.922 0 1.672.75 1.672 1.67v7.571a1.149 1.149 0 0 0 1.48 1.104v2.153c0 1.198-.829 3.523-2.363 5.474a10.81 10.81 0 0 1-2.038 2.003c-1.246.92-2.848 1.626-4.834 1.626-1.986 0-3.588-.705-4.834-1.627a10.822 10.822 0 0 1-2.039-2.003c-1.533-1.95-2.361-4.275-2.361-5.473zm14.607 13.248L28 36.945l-5.372-4.016c.532-.677.83-1.546.83-2.322v-1.321A9.462 9.462 0 0 0 28 30.423a9.46 9.46 0 0 0 4.541-1.137v1.322c0 .775.299 1.644.832 2.321zm-12.114-.915a2.242 2.242 0 0 0-1.442-.054l-2.833.855a5.826 5.826 0 0 1 4.835-4.594v2.387c0 .514-.23 1.046-.56 1.406zm2.226 6.583a.331.331 0 0 1-.005-.011l-.123-.311-.022-.056-.118-.298-.009-.02-.35-.88c-.01-.02-.017-.04-.026-.06l-.095-.239-.035-.086-.09-.225a454.832 454.832 0 0 0-.228-.561l-.061-.147-.064-.156-.024-.058a116.867 116.867 0 0 0-.289-.696c0-.001 0-.003-.002-.004l-.132-.316-.066-.155 4.62 3.454-1.93.82-.01.004-.806.343-.135-.342zm1.956 5.021a903.63 903.63 0 0 0-1.222-3.152l.306-.13 1.25 1.454-.334 1.828zm2.575 6.665a.827.827 0 0 0-.084-.137c-.37-.98-.84-2.219-1.361-3.583l.765-4.191h1.328l.765 4.191c-.545 1.429-1.035 2.72-1.413 3.72zm.955-9.551H27.03l-.92-1.069L28 38.86l1.89.803-.919 1.069zm2.076 1.621l-.488 1.265-.334-1.828 1.25-1.454.306.13a692.33 692.33 0 0 0-.734 1.887zm3.141-7.88l-.125.299-.017.04-.13.314-.01.022-.119.287-.022.054-.028.068-.054.133-.068.166-.022.054c-.058.14-.116.285-.176.433l-.028.069-.09.223-.036.089a113.437 113.437 0 0 0-.122.303c-.111.276-.227.565-.346.866l-.012.03-.117.296-.023.056-.124.313-.002.005-.136.346-.807-.343-.009-.003-1.931-.821 4.62-3.453-.066.154zm1.995-2.512l-.003-.001a2.241 2.241 0 0 0-1.439.054c-.33-.36-.56-.892-.56-1.407V28.22a5.78 5.78 0 0 1 4.838 4.597l-2.836-.856zm6.364 11.611a2.606 2.606 0 0 1-2.603 2.603 2.606 2.606 0 0 1-2.603-2.603 2.606 2.606 0 0 1 2.603-2.603 2.606 2.606 0 0 1 2.603 2.603z" fill="#FF736D"/></symbol><symbol fill="none" viewBox="0 0 63.02 43.72" id="ico-package-faq-3" xmlns="http://www.w3.org/2000/svg"><path d="M60.246 18.258h-.922V8.407c0-2.517-2.623-4.564-5.847-4.564h-25.35L11.022.027l-.015-.002-.015-.004-.03-.005-.048-.007-.043-.004a1.114 1.114 0 0 0-.05-.004h-.092c-.013 0-.025 0-.038.002a1.043 1.043 0 0 0-.052.004l-.036.005a1.059 1.059 0 0 0-.053.008l-.032.007a1.23 1.23 0 0 0-.136.04l-.028.01a.889.889 0 0 0-.05.021l-.027.013a.914.914 0 0 0-.048.025l-.024.015a.864.864 0 0 0-.045.028l-.024.017a.888.888 0 0 0-.04.03l-.023.021a.818.818 0 0 0-.034.032l-.023.025a.642.642 0 0 0-.028.032l-.022.029a.63.63 0 0 0-.022.032l-.02.033a.594.594 0 0 0-.017.033L9.892.5l-.01.023-.003.012-.005.011L8.82 3.842H5.847C2.63 3.842.012 5.882 0 8.392v25c0 .398.415.72.923.72.51 0 .923-.322.923-.72v-21.66c1.047.768 2.454 1.24 4 1.24h47.635c2.204.001 3.996 1.402 3.996 3.123v5.046H47.32a1.11 1.11 0 0 0-.166.012l-.013.002a1.167 1.167 0 0 0-.072.014l-.015.003c-.02.005-.041.01-.062.017l-.023.007a.5.5 0 0 0-.05.018l-.032.012-.037.017a.31.31 0 0 0-.041.02l-.026.014-.047.027-.018.014a.407.407 0 0 0-.048.033l-.026.022-.035.031a.75.75 0 0 0-.054.057l-4.923 5.767a.678.678 0 0 0-.087.127.452.452 0 0 0-.023.05l-.006.015a.618.618 0 0 0-.018.053l-.004.015a.586.586 0 0 0-.01.048l-.003.021c-.002.013-.002.027-.003.04l-.001.03.001.03a.273.273 0 0 0 .007.061.295.295 0 0 0 .01.05l.003.013a.38.38 0 0 0 .018.054l.007.015a.683.683 0 0 0 .11.177l4.922 5.766c.02.023.042.045.065.066l.023.02a.846.846 0 0 0 .134.094l.026.015a.672.672 0 0 0 .086.04l.023.01.072.025.029.008a.759.759 0 0 0 .072.017l.03.006c.025.005.05.008.076.011l.028.004c.031.002.064.004.096.004h10.163v5.046c0 1.723-1.795 3.124-4 3.124H5.848c-2.206 0-4-1.401-4-3.124l-.001-.01v-2.873c0-.397-.414-.721-.924-.721-.508 0-.923.324-.923.72v2.884l.002.023c.015 2.506 2.631 4.542 5.845 4.542h47.63c3.224 0 5.846-2.047 5.847-4.564v-5.046h.922c1.527 0 2.77-.97 2.77-2.162V20.419c-.001-1.192-1.243-2.161-2.77-2.161zM11.434 1.618l16.288 3.634h.002L38.64 7.687H9.49l1.944-6.07zM57.477 12.77c-1.046-.769-2.453-1.24-4-1.24H5.847c-2.206 0-4-1.402-4-3.124 0-1.722 1.794-3.123 4-3.123h2.51l-.769 2.403H5.847c-.51 0-.923.323-.923.721 0 .398.413.72.923.72h2.459l.003.001h43.936c.51 0 .924-.323.924-.72 0-.399-.414-.722-.923-.722H45.36L34.587 5.284h18.89c2.206 0 4 1.401 4 3.123v4.364zm3.692 19.18c0 .398-.414.72-.923.72h-12.43l-4.308-5.044 4.308-5.045h12.43l.038-.002c.31-.003.607-.046.885-.123v9.494zm-.923-10.811h-.922V19.7h.922c.509 0 .923.322.923.72 0 .397-.414.72-.923.72z" fill="#FF736D"/><path d="M51.015 24.984c-1.866 0-3.385 1.186-3.385 2.643 0 1.457 1.519 2.643 3.385 2.643 1.866 0 3.385-1.186 3.385-2.643 0-1.457-1.519-2.643-3.385-2.643zm0 3.844c-.848 0-1.538-.538-1.538-1.2 0-.663.69-1.202 1.538-1.202.848 0 1.538.539 1.538 1.201 0 .663-.69 1.201-1.538 1.201z" fill="#FF736D"/></symbol><symbol fill="none" viewBox="0 0 13.76 14.23" id="ico-sale" xmlns="http://www.w3.org/2000/svg"><g clip-path="url(#lclip0)" fill="#FF736D"><path d="M13.07 7.181a.41.41 0 0 1 0-.362l.521-1.069c.29-.594.06-1.303-.524-1.613l-1.05-.558a.41.41 0 0 1-.214-.293l-.205-1.171a1.215 1.215 0 0 0-1.373-.998l-1.177.167a.41.41 0 0 1-.345-.112L7.848.345a1.215 1.215 0 0 0-1.696 0l-.855.827a.41.41 0 0 1-.345.112l-1.177-.167a1.215 1.215 0 0 0-1.373.998l-.205 1.171a.41.41 0 0 1-.214.293l-1.05.558A1.215 1.215 0 0 0 .41 5.75l.52 1.069a.41.41 0 0 1 0 .362L.409 8.25c-.29.594-.06 1.303.524 1.613l1.05.558a.41.41 0 0 1 .214.293l.205 1.171a1.215 1.215 0 0 0 1.373.998l1.177-.167a.41.41 0 0 1 .345.112l.855.827a1.216 1.216 0 0 0 1.696 0l.855-.827a.41.41 0 0 1 .345-.112l1.177.167a1.215 1.215 0 0 0 1.373-.998l.205-1.17a.41.41 0 0 1 .214-.294l1.05-.558c.585-.31.815-1.019.524-1.613l-.521-1.07zm-.382 1.97l-1.05.556a1.212 1.212 0 0 0-.63.867l-.205 1.172a.411.411 0 0 1-.465.337l-1.177-.166a1.212 1.212 0 0 0-1.02.33l-.854.827a.411.411 0 0 1-.574 0l-.855-.826a1.211 1.211 0 0 0-1.019-.332l-1.177.167a.411.411 0 0 1-.465-.337l-.205-1.171a1.212 1.212 0 0 0-.63-.868l-1.05-.557a.411.411 0 0 1-.178-.546l.522-1.068a1.21 1.21 0 0 0 0-1.072l-.522-1.068a.411.411 0 0 1 .178-.546l1.05-.557c.335-.178.564-.494.63-.868l.205-1.17a.411.411 0 0 1 .465-.338l1.177.166c.375.054.747-.067 1.02-.33l.854-.827a.411.411 0 0 1 .574 0l.855.826c.272.264.644.385 1.019.331l1.177-.166a.411.411 0 0 1 .465.337l.205 1.171c.066.374.295.69.63.868l1.05.557a.411.411 0 0 1 .178.546l-.522 1.068a1.21 1.21 0 0 0 0 1.072l.522 1.068a.411.411 0 0 1-.178.546z"/><path d="M9.95 4.05a.404.404 0 0 0-.571 0L4.05 9.379a.404.404 0 0 0 .571.571L9.95 4.621a.404.404 0 0 0 0-.571zm-4.565-.684c-.816 0-1.48.665-1.48 1.48 0 .817.664 1.481 1.48 1.481s1.48-.664 1.48-1.48-.664-1.48-1.48-1.48zm0 2.154a.674.674 0 1 1 .002-1.348.674.674 0 0 1-.002 1.348zm3.23 2.153c-.816 0-1.48.664-1.48 1.48s.664 1.48 1.48 1.48a1.481 1.481 0 0 0 0-2.96zm0 2.153a.674.674 0 1 1 .001-1.347.674.674 0 0 1-.001 1.347z"/></g><defs><clipPath id="lclip0"><path fill="#fff" d="M0 0h14v14H0z"/></clipPath></defs></symbol><symbol fill="none" viewBox="0 0 17.11 10.1" id="ico-vk" xmlns="http://www.w3.org/2000/svg"><path fill-rule="evenodd" clip-rule="evenodd" d="M16.61.684c.12-.394 0-.684-.56-.684h-1.86c-.473 0-.692.25-.81.526 0 0-.945 2.305-2.285 3.803-.434.434-.631.572-.867.572-.118 0-.29-.138-.29-.532V.685C9.937.212 9.801 0 9.405 0H6.483c-.296 0-.473.22-.473.428 0 .448.67.552.739 1.813V4.98c0 .6-.108.709-.345.709-.631 0-2.164-2.316-3.074-4.965C3.152.208 2.973 0 2.498 0H.638C.104.001 0 .251 0 .527c0 .493.631 2.935 2.935 6.166 1.537 2.207 3.702 3.404 5.673 3.404 1.181 0 1.328-.266 1.328-.724V7.705c0-.532.112-.638.487-.638.276 0 .749.138 1.853 1.202 1.26 1.26 1.469 1.826 2.177 1.826h1.86c.532 0 .797-.266.644-.79-.168-.523-.77-1.28-1.57-2.179-.433-.512-1.083-1.063-1.28-1.34-.276-.354-.197-.511 0-.827.001 0 2.267-3.192 2.504-4.275z" fill="#fff"/></symbol><symbol fill="none" viewBox="0 0 17.11 10.1" id="ico-vk-maincolor" xmlns="http://www.w3.org/2000/svg"><path fill-rule="evenodd" clip-rule="evenodd" d="M16.61.684c.12-.394 0-.684-.56-.684h-1.86c-.473 0-.692.25-.81.526 0 0-.945 2.305-2.285 3.803-.434.434-.631.572-.867.572-.118 0-.29-.138-.29-.532V.685C9.937.212 9.801 0 9.405 0H6.483c-.296 0-.473.22-.473.428 0 .448.67.552.739 1.813V4.98c0 .6-.108.709-.345.709-.631 0-2.164-2.316-3.074-4.965C3.152.208 2.973 0 2.498 0H.638C.104.001 0 .251 0 .527c0 .493.631 2.935 2.935 6.166 1.537 2.207 3.702 3.404 5.673 3.404 1.181 0 1.328-.266 1.328-.724V7.705c0-.532.112-.638.487-.638.276 0 .749.138 1.853 1.202 1.26 1.26 1.469 1.826 2.177 1.826h1.86c.532 0 .797-.266.644-.79-.168-.523-.77-1.28-1.57-2.179-.433-.512-1.083-1.063-1.28-1.34-.276-.354-.197-.511 0-.827.001 0 2.267-3.192 2.504-4.275z" fill="#dc6e65"/></symbol></svg>