<svg width="561" height="561" viewBox="0 0 561 561" fill="none" xmlns="http://www.w3.org/2000/svg" stroke="white">

<path id="circle1" d="M560.5 280.5C560.5 435.14 435.14 560.5 280.5 560.5C125.86 560.5 0.5 435.14 0.5 280.5C0.5 125.86 125.86 0.5 280.5 0.5C435.14 0.5 560.5 125.86 560.5 280.5Z"></path>
<circle id="shar1" cx="0" cy="0" r="6" fill="white"></circle>
<animateMotion
	xlink:href="#shar1"
	dur="9s"
	begin="0s"
	fill="freeze"
	repeatCount="indefinite"
	stroke="white"
	strokeWidth="1">
	<mpath xlink:href="#circle1"></mpath>
</animateMotion>

<g id="halth" cx="32.5" cy="32.5" r="32.5">
	<circle cx="32.5" cy="32.5" r="32.5" fill="#D1635B" stroke="none" fill-opacity="0.24"/>
	<circle cx="32" cy="32" r="20" fill="white"/>
	<circle cx="32" cy="32" r="20" fill="white"/>
	<path d="M21.6602 35H20.812V32.0425H17.5864V35H16.7427V28.6016H17.5864V31.3525H20.812V28.6016H21.6602V35ZM26.7754 32.0425H24.0024V34.3101H27.2236V35H23.1587V28.6016H27.1797V29.2959H24.0024V31.3525H26.7754V32.0425ZM31.8071 33.3301H29.1265L28.5244 35H27.6543L30.0977 28.6016H30.8359L33.2837 35H32.418L31.8071 33.3301ZM29.3813 32.6357H31.5566L30.4668 29.6431L29.3813 32.6357ZM34.9932 34.3101H38.0254V35H34.145V28.6016H34.9932V34.3101ZM42.1958 29.2959H40.1392V35H39.2998V29.2959H37.2476V28.6016H42.1958V29.2959ZM48.0625 35H47.2144V32.0425H43.9888V35H43.145V28.6016H43.9888V31.3525H47.2144V28.6016H48.0625V35Z" fill="#D1635B" />
</g>

<animateMotion
	xlink:href="#halth"
	dur="9s"
	begin="3s"
	fill="freeze"
	repeatCount="indefinite">
	<mpath xlink:href="#circle1"></mpath>
</animateMotion>


<path id="circle2" d="M521.5 280.5C521.5 413.601 413.601 521.5 280.5 521.5C147.399 521.5 39.5 413.601 39.5 280.5C39.5 147.399 147.399 39.5 280.5 39.5C413.601 39.5 521.5 147.399 521.5 280.5Z"></path>
<circle id="shar2" cx="0" cy="0" r="6" fill="white"></circle>
<animateMotion
	xlink:href="#shar2"
	dur="9s"
	begin="1s"
	fill="freeze"
	repeatCount="indefinite"
	stroke="white"
	strokeWidth="1">
	<mpath xlink:href="#circle2"></mpath>
</animateMotion>


<path id="circle3" d="M483.5 280.5C483.5 392.614 392.614 483.5 280.5 483.5C168.386 483.5 77.5 392.614 77.5 280.5C77.5 168.386 168.386 77.5 280.5 77.5C392.614 77.5 483.5 168.386 483.5 280.5Z"></path>
<circle id="shar3" cx="0" cy="0" r="6" fill="white"></circle>
<animateMotion
	xlink:href="#shar3"
	dur="9s"
	begin="2s"
	fill="freeze"
	repeatCount="indefinite"
	stroke="white"
	strokeWidth="1">
	
	<mpath xlink:href="#circle3"></mpath>
</animateMotion>
</circle>


<path id="circle4" d="M451.5 280.5C451.5 374.941 374.941 451.5 280.5 451.5C186.059 451.5 109.5 374.941 109.5 280.5C109.5 186.059 186.059 109.5 280.5 109.5C374.941 109.5 451.5 186.059 451.5 280.5Z"></path>
<circle id="shar4" cx="0" cy="0" r="6" fill="white"></circle>
<animateMotion
	xlink:href="#shar4"
	dur="9s"
	begin="4s"
	fill="freeze"
	repeatCount="indefinite"
	stroke="white"
	strokeWidth="1">
	<mpath xlink:href="#circle4"></mpath>
</animateMotion>
</circle>

<path id="circle5" d="M423.5 280C423.5 359.253 359.253 423.5 280 423.5C200.747 423.5 136.5 359.253 136.5 280C136.5 200.747 200.747 136.5 280 136.5C359.253 136.5 423.5 200.747 423.5 280Z"></path>
<circle id="shar5" cx="0" cy="0" r="6" fill="white"></circle>
<animateMotion
	xlink:href="#shar5"
	dur="9s"
	begin="6s"
	fill="freeze"
	repeatCount="indefinite"
	stroke="white"
	strokeWidth="1">
	<mpath xlink:href="#circle5"></mpath>
</animateMotion>
</circle>


</svg>
