<svg width="10" height="14" viewBox="0 0 10 14" fill="none" xmlns="http://www.w3.org/2000/svg">
<path d="M5 0C2.24296 0 0 2.34289 0 5.22274C0 9.51351 4.50232 13.7031 4.69405 13.8794C4.78145 13.9597 4.8907 14 5 14C5.1093 14 5.21855 13.9598 5.306 13.8794C5.49764 13.7031 10 9.51356 10 5.22274C10 2.34289 7.75704 0 5 0ZM5 3.75656C5.76585 3.75656 6.3889 4.41427 6.3889 5.22274C6.3889 6.0312 5.76585 6.68891 5 6.68891C4.23415 6.68891 3.6111 6.0312 3.6111 5.22274C3.6111 4.41427 4.23415 3.75656 5 3.75656Z" fill="#FF736D"/>
</svg>
