<svg width="30" height="34" viewBox="0 0 30 34" fill="none" xmlns="http://www.w3.org/2000/svg">
<path d="M22.4975 12.0471H22.9064C24.9602 12.0471 27.0132 12.0471 29.0653 12.0471C29.8476 12.0471 30.0013 12.2323 30 13.0951C30 16.4273 30 19.7587 30 23.0891C30 24.9002 30 26.7127 30 28.5238C30 31.3534 27.8564 33.5376 25.2912 33.4717C22.6041 33.403 19.9158 33.4535 17.2287 33.4521C12.9542 33.4521 8.67889 33.4521 4.40273 33.4521C1.98993 33.4521 0.00126989 31.2187 0 28.5C0 22.1534 0 15.8064 0 9.45885V1.25349C0 0.515578 0.181594 0.312134 0.84067 0.312134H21.6669C22.3133 0.312134 22.5025 0.522597 22.5025 1.22263C22.5025 4.70548 22.5025 8.18879 22.5025 11.6726L22.4975 12.0471ZM22.613 32.0801L22.3794 31.7841C21.6593 30.8694 21.2504 29.82 21.2491 28.5939C21.2491 23.1695 21.2491 17.7451 21.2491 12.3207C21.2491 8.89489 21.2491 5.47049 21.2491 2.04469C21.2491 1.74728 21.1666 1.67575 20.9075 1.67575C14.4641 1.68323 8.02023 1.68323 1.57594 1.67575C1.32196 1.67575 1.2318 1.75009 1.2318 2.04609C1.23773 10.8954 1.24027 19.7447 1.23942 28.5939C1.22488 29.2643 1.3863 29.925 1.7042 30.4962C2.34676 31.6185 3.30426 32.0759 4.47257 32.0773H22.6092L22.613 32.0801ZM22.5127 13.4556C22.5063 13.5777 22.4975 13.6786 22.4975 13.7811C22.4975 18.7014 22.4975 23.6213 22.4975 28.5406C22.4975 30.7572 23.9375 32.2189 25.9351 32.0548C27.61 31.9145 28.7517 30.4948 28.7542 28.5238C28.7542 23.6269 28.7542 18.7299 28.7542 13.833C28.7542 13.7095 28.7453 13.5847 28.7402 13.4556H22.5127Z" fill="white"/>
<path d="M11.2524 3.76306C13.6974 3.76306 16.141 3.76306 18.5835 3.76306C19.1562 3.76306 19.381 4.00577 19.381 4.62023V14.5806C19.381 15.282 19.1892 15.4994 18.5492 15.4994H3.97592C3.30796 15.4994 3.12256 15.2988 3.12256 14.5721V4.67773C3.12256 3.9763 3.31432 3.75745 3.9518 3.75745L11.2524 3.76306ZM4.39499 14.0965H18.1098V5.17997H4.39499V14.0965Z" fill="white"/>
<path d="M11.2858 26.5625C13.7308 26.5625 16.1745 26.5625 18.6169 26.5625C18.9433 26.5625 19.2036 26.6509 19.3306 27.0117C19.4932 27.4707 19.2036 27.9269 18.716 27.9409C18.1661 27.9564 17.6163 27.9409 17.0651 27.9409H4.08556C3.97889 27.9409 3.87349 27.9409 3.76809 27.9409C3.37315 27.9143 3.11536 27.6293 3.12425 27.2391C3.13314 26.8489 3.39474 26.5709 3.79602 26.5695C5.70086 26.5695 7.6057 26.5695 9.51054 26.5695L11.2858 26.5625Z" fill="white"/>
<path d="M11.2527 19.6435H4.08037C3.99655 19.6435 3.91147 19.6435 3.82639 19.6435C3.39716 19.6309 3.13048 19.3767 3.12413 18.9709C3.11778 18.5652 3.38827 18.2689 3.83273 18.2689C6.76364 18.2689 9.69415 18.2689 12.6242 18.2689C14.623 18.2689 16.6223 18.2689 18.6219 18.2689C18.9318 18.2689 19.187 18.3461 19.3216 18.6901C19.3591 18.7839 19.3767 18.8858 19.3732 18.9882C19.3697 19.0906 19.3452 19.1908 19.3015 19.2812C19.2578 19.3715 19.1961 19.4497 19.1211 19.5098C19.046 19.5699 18.9596 19.6104 18.8683 19.6281C18.7419 19.6451 18.6145 19.6507 18.4873 19.6449L11.2527 19.6435Z" fill="white"/>
<path d="M11.2853 22.4127H18.5237C18.6399 22.4075 18.7562 22.4122 18.8717 22.4267C19.0108 22.4544 19.1372 22.5342 19.2294 22.6527C19.3216 22.7712 19.3742 22.9212 19.3782 23.0775C19.3822 23.2337 19.3375 23.3868 19.2515 23.5109C19.1655 23.635 19.0435 23.7226 18.906 23.759C18.7802 23.7831 18.6526 23.793 18.525 23.7884H4.0481C3.9107 23.7931 3.77317 23.7866 3.63665 23.7688C3.48944 23.7431 3.35563 23.6593 3.26005 23.5329C3.16447 23.4065 3.11359 23.2461 3.11685 23.0814C3.1201 22.9167 3.17727 22.7588 3.27775 22.6372C3.37824 22.5155 3.51523 22.4382 3.66331 22.4197C3.75834 22.411 3.85376 22.4087 3.94904 22.4127H11.2853Z" fill="white"/>
</svg>
