<svg width="56" height="56" viewBox="0 0 56 56" fill="none" xmlns="http://www.w3.org/2000/svg">
<path d="M52.7981 53.1325L50.3208 38.6291C50.0538 37.0664 48.9453 35.8111 47.4275 35.3533L40.7456 33.3372C40.6072 31.7038 39.9375 30.1628 38.823 28.943C37.9315 27.9674 36.8101 27.257 35.5741 26.865C35.7856 26.6303 35.9817 26.3963 36.1617 26.1675C37.7507 24.1466 38.6014 21.9202 38.8179 20.4008H39.3334C40.6741 20.4008 41.7649 19.3102 41.7649 17.9693V16.7229C41.7649 15.8281 41.2616 15.0173 40.5046 14.5965V11.5992C40.5046 11.1463 40.1374 10.7791 39.6845 10.7791C39.2316 10.7791 38.8645 11.1462 38.8645 11.5992V14.964C38.5452 15.0195 38.1641 15.1153 37.7743 15.2795C37.7344 15.294 37.6955 15.3109 37.6588 15.3311C37.5707 15.3712 37.4826 15.4136 37.3948 15.4613V8.85259C37.3948 7.0268 35.9094 5.54148 34.0836 5.54148H31.8201C31.0394 5.54148 30.2767 5.8135 29.6723 6.30766L29.4502 6.48922C29.0422 6.82281 28.5273 7.00656 28.0002 7.00656C27.4731 7.00656 26.9581 6.82281 26.5501 6.48922L26.3281 6.30766C25.7237 5.81361 24.961 5.54148 24.1803 5.54148H21.9166C20.0908 5.54148 18.6054 7.0268 18.6054 8.85259V15.4613C18.5176 15.4136 18.4295 15.3712 18.3414 15.3311C18.3047 15.3109 18.2659 15.294 18.226 15.2795C17.8362 15.1153 17.455 15.0195 17.1358 14.964V6.45586C17.1358 3.80045 19.2962 1.64008 21.9516 1.64008H34.0485C36.7041 1.64008 38.8643 3.80045 38.8643 6.45586V7.74495C38.8643 8.19788 39.2315 8.56505 39.6843 8.56505C40.1371 8.56505 40.5044 8.19798 40.5044 7.74495V6.45586C40.5044 2.89614 37.6083 0 34.0485 0H21.9516C18.3917 0 15.4957 2.89614 15.4957 6.45586V14.5966C14.7387 15.0174 14.2354 15.8281 14.2354 16.723V17.9694C14.2354 19.3103 15.3262 20.401 16.6669 20.401H17.1824C17.3988 21.9203 18.2497 24.1467 19.8387 26.1676C20.0184 26.3962 20.2144 26.63 20.4257 26.8645C17.5841 27.767 15.5119 30.3218 15.2547 33.3372L8.57259 35.3533C7.05479 35.8111 5.94617 37.0664 5.67929 38.6291L4.67326 44.5188C4.59703 44.9653 4.89715 45.3889 5.34351 45.4651C5.78976 45.5416 6.21359 45.2413 6.28993 44.7949L7.29596 38.9051C7.4574 37.9597 8.12809 37.2004 9.04629 36.9235L15.2265 35.0587V36.6809C13.8099 36.9416 12.6045 37.9147 12.108 39.263C11.9762 39.6209 11.8943 39.9956 11.8646 40.3767L11.2673 48.0433C11.2222 48.6208 11.422 49.1959 11.8152 49.6208C12.2084 50.0458 12.7661 50.2897 13.3453 50.2897H14.3677C14.8206 50.2897 15.1878 49.9227 15.1878 49.4697C15.1878 49.0166 14.8206 48.6497 14.3677 48.6497H13.3453C13.2218 48.6497 13.103 48.5978 13.0191 48.507C12.9353 48.4165 12.8928 48.294 12.9024 48.1709L13.4997 40.5042C13.5178 40.2733 13.5673 40.0463 13.6472 39.8297C13.9926 38.8918 14.9253 38.2566 15.9684 38.2493L16.1035 38.2483C16.1098 38.2482 16.1161 38.2482 16.1223 38.2482C17.1361 38.2482 18.0335 38.8231 18.4121 39.7168C18.5183 39.9674 18.5828 40.2323 18.604 40.5042L19.2015 48.171C19.2111 48.294 19.1685 48.4165 19.0847 48.5072C19.0009 48.5977 18.8821 48.6497 18.7586 48.6497H17.7361C17.2832 48.6497 16.916 49.0167 16.916 49.4697C16.916 49.9226 17.2832 50.2897 17.7361 50.2897H18.7586C19.3377 50.2897 19.8955 50.046 20.2886 49.6208C20.6819 49.1957 20.8818 48.6207 20.8367 48.0434L20.2392 40.3767C20.2042 39.928 20.0975 39.4906 19.9222 39.0768C19.382 37.8019 18.2269 36.9154 16.8665 36.6755V34.5639L19.6855 33.7133C19.942 34.2535 20.4503 35.4209 21.4571 37.9373C22.4717 40.4763 23.7329 43.7308 24.9425 46.8945C24.9512 46.9211 24.9611 46.947 24.9723 46.9724C25.7795 49.0845 26.5625 51.1533 27.2322 52.9378C27.3523 53.2579 27.6582 53.4698 28 53.4698C28.3418 53.4698 28.6477 53.2579 28.7678 52.9378C29.4374 51.1533 30.2204 49.0845 31.0277 46.9724C31.039 46.947 31.0488 46.921 31.0575 46.8945C32.2662 43.7326 33.5267 40.4802 34.5409 37.942C35.5491 35.4223 36.0578 34.254 36.3144 33.7133L39.1334 34.5639V39.4076C37.1802 39.787 35.7006 41.5097 35.7006 43.5723C35.7006 45.9119 37.6041 47.8155 39.9438 47.8155C42.2836 47.8155 44.1871 45.912 44.1871 43.5723C44.1871 41.5165 42.7173 39.798 40.7735 39.4111V35.0588L46.9538 36.9236C47.872 37.2005 48.5426 37.9598 48.7041 38.9052L51.1815 53.4087C51.2226 53.6492 51.1586 53.8844 51.0012 54.0708C50.8439 54.2572 50.6229 54.36 50.3789 54.36H5.62111C5.37709 54.36 5.15615 54.2573 4.99876 54.0708C4.84148 53.8844 4.77739 53.6493 4.81851 53.4087L5.63609 48.6222C5.71232 48.1758 5.4122 47.7521 4.96584 47.6759C4.51959 47.5993 4.09576 47.8998 4.01942 48.3462L3.20184 53.1326C3.07989 53.8471 3.27797 54.5745 3.74522 55.1285C4.21268 55.6824 4.89639 56 5.62111 56H50.3789C51.1036 56 51.7874 55.6824 52.2548 55.1284C52.722 54.5744 52.9201 53.847 52.7981 53.1325ZM38.8742 16.6347C39.3111 16.5258 39.6619 16.5278 39.6658 16.5279C39.8071 16.5297 39.9445 16.4967 40.0666 16.4327C40.1031 16.5236 40.1246 16.6213 40.1246 16.723V17.9694C40.1246 18.4058 39.7696 18.7609 39.3332 18.7609H38.8742V16.6347ZM17.1258 18.7609H16.6668C16.2304 18.7609 15.8753 18.4058 15.8753 17.9694V16.723C15.8753 16.6213 15.897 16.5236 15.9334 16.4328C16.0554 16.4968 16.1927 16.5298 16.3342 16.5279C16.3404 16.529 16.6902 16.527 17.1258 16.6352V18.7609ZM18.7659 19.6804V17.5259C19.0144 17.6004 19.2862 17.5902 19.5371 17.4856C19.9675 17.306 20.2455 16.8889 20.2455 16.4229V8.85259C20.2455 7.93122 20.9952 7.18156 21.9166 7.18156H24.1801C24.5834 7.18156 24.9775 7.32211 25.2898 7.57739L25.5118 7.75895C26.2119 8.33142 27.0956 8.64653 28 8.64653C28.9044 8.64653 29.7881 8.33131 30.4882 7.75895L30.7102 7.57739C31.0224 7.32211 31.4165 7.18156 31.8199 7.18156H34.0834C35.0048 7.18156 35.7545 7.93122 35.7545 8.85259V16.423C35.7545 16.8889 36.0325 17.3061 36.4629 17.4857C36.6066 17.5456 36.7571 17.5747 36.9063 17.5747C37.0175 17.5747 37.1279 17.5584 37.2341 17.5267V19.6804C37.2341 20.8777 36.4063 23.2028 34.8722 25.1538C34.3641 25.8001 33.7109 26.4945 32.9067 27.1013C32.8812 27.1183 32.8568 27.1368 32.8335 27.1565C31.5876 28.0777 29.9856 28.7833 28 28.7833C26.0144 28.7833 24.4124 28.0777 23.1664 27.1564C23.1431 27.1368 23.1188 27.1183 23.0934 27.1014C22.2892 26.4945 21.636 25.8001 21.1277 25.1538C19.5938 23.2029 18.7659 20.8777 18.7659 19.6804ZM33.3725 32.9295L28 36.9451L22.6275 32.9295C23.1603 32.2524 23.4587 31.3832 23.4587 30.6075V29.2856C24.7221 29.965 26.2296 30.4235 28 30.4235C29.7703 30.4235 31.278 29.965 32.5412 29.2856V30.6075C32.5412 31.3832 32.8397 32.2524 33.3725 32.9295ZM21.2589 32.0142C20.8209 31.8474 20.3354 31.82 19.8762 31.9446C19.856 31.9493 19.8364 31.9547 19.8172 31.9604L16.9841 32.8152C17.4632 30.4591 19.3764 28.5837 21.8187 28.2205V30.6075C21.8187 31.122 21.589 31.6539 21.2589 32.0142ZM23.4846 38.5972C23.483 38.5934 23.4815 38.5896 23.4801 38.5859C23.4385 38.4808 23.3975 38.3771 23.3568 38.2746C23.3495 38.256 23.3421 38.2375 23.3348 38.2191C23.295 38.1188 23.2555 38.0193 23.2166 37.9214C23.2139 37.9145 23.2111 37.9077 23.2084 37.9007C23.0869 37.5952 22.9697 37.3022 22.8571 37.0215C22.8489 37.0011 22.8407 36.9805 22.8325 36.9602C22.8001 36.8797 22.7683 36.8004 22.7367 36.7221C22.7251 36.6933 22.7136 36.6649 22.7021 36.6365C22.6715 36.5606 22.6411 36.4851 22.6111 36.4113C22.6021 36.3892 22.5934 36.3677 22.5845 36.3457C22.5301 36.2117 22.477 36.081 22.4251 35.9535C22.4111 35.9191 22.3968 35.884 22.3829 35.85C22.3626 35.8003 22.3428 35.752 22.3229 35.7033C22.3014 35.6508 22.28 35.5987 22.259 35.5475C22.2511 35.5284 22.2429 35.5082 22.2351 35.4891C22.2287 35.4738 22.2229 35.4597 22.2167 35.4445C22.122 35.2144 22.0319 34.9975 21.9465 34.7935C21.9459 34.7919 21.9451 34.7902 21.9444 34.7886C21.8989 34.68 21.8544 34.5739 21.8117 34.4728C21.7895 34.4204 21.7676 34.3689 21.7462 34.3184L26.3667 37.7718L24.436 38.592C24.4326 38.5934 24.4291 38.5948 24.4257 38.5964L23.6196 38.9388C23.5739 38.8232 23.5292 38.7099 23.4846 38.5972ZM25.4413 43.6184C25.2793 43.1981 25.1161 42.7754 24.9526 42.3531C24.6969 41.6925 24.4526 41.0645 24.2189 40.4662L24.5249 40.3362L25.7753 41.7897L25.4413 43.6184ZM28.0159 50.2835C27.9923 50.2347 27.9643 50.1887 27.932 50.1458C27.5614 49.1664 27.0911 47.927 26.5706 46.5635L27.3362 42.3717H28.6638L29.4294 46.5635C28.884 47.992 28.3941 49.2837 28.0159 50.2835ZM28.9714 40.7317H27.0286L26.1093 39.6631L28 38.86L29.8906 39.6631L28.9714 40.7317ZM31.0474 42.3531C30.8839 42.7754 30.7207 43.1981 30.5587 43.6184L30.2247 41.7896L31.4751 40.3361L31.7811 40.4661C31.5474 41.0644 31.3031 41.6925 31.0474 42.3531ZM34.1884 34.4728C34.1478 34.5686 34.1056 34.6691 34.0626 34.7717C34.0571 34.7851 34.0514 34.7985 34.0458 34.812C34.0033 34.9137 33.9599 35.0176 33.9151 35.1258C33.9121 35.1329 33.9091 35.1404 33.9061 35.1477C33.8674 35.241 33.8277 35.3372 33.7873 35.4353C33.7798 35.4537 33.7727 35.4706 33.7651 35.4891C33.7562 35.5111 33.7466 35.5344 33.7375 35.5566C33.7195 35.6004 33.7013 35.645 33.6829 35.6896C33.6604 35.7446 33.6379 35.7994 33.6149 35.8558C33.6075 35.8737 33.6 35.8924 33.5926 35.9104C33.5355 36.0503 33.4768 36.1945 33.4169 36.3426C33.4075 36.3658 33.3982 36.3885 33.3888 36.412C33.3591 36.4852 33.329 36.5599 33.2987 36.635C33.2868 36.6645 33.2749 36.6938 33.263 36.7235C33.2317 36.8011 33.2001 36.8796 33.1682 36.9592C33.1592 36.9814 33.1501 37.0042 33.1412 37.0265C33.0299 37.3034 32.9145 37.5923 32.7948 37.8933C32.7908 37.9033 32.7869 37.913 32.783 37.923C32.7442 38.0203 32.7051 38.1192 32.6655 38.2188C32.6582 38.2374 32.6507 38.256 32.6433 38.2747C32.6024 38.3777 32.5611 38.4818 32.5194 38.5876C32.5186 38.5896 32.5178 38.5915 32.5171 38.5934C32.472 38.7074 32.4267 38.822 32.3806 38.939L31.5737 38.5963C31.5709 38.595 31.568 38.5938 31.5653 38.5926L29.6335 37.772L34.2541 34.3186C34.2324 34.3689 34.2105 34.4203 34.1884 34.4728ZM36.1828 31.9605C36.1827 31.9605 36.1824 31.9604 36.1823 31.9604C36.1817 31.9601 36.1809 31.96 36.1803 31.9597C35.7045 31.817 35.197 31.8406 34.7412 32.0142C34.411 31.6539 34.1814 31.122 34.1814 30.6075V28.2193C36.639 28.5815 38.5464 30.4393 39.0193 32.8162L36.1828 31.9605ZM42.547 43.5723C42.547 45.0077 41.3792 46.1754 39.9438 46.1754C38.5085 46.1754 37.3407 45.0077 37.3407 43.5723C37.3407 42.1368 38.5085 40.9691 39.9438 40.9691C41.3792 40.9691 42.547 42.1368 42.547 43.5723Z" fill="#FF736D"/>
</svg>
