<svg width="64" height="44" viewBox="0 0 64 44" fill="none" xmlns="http://www.w3.org/2000/svg">
<path d="M60.246 18.2576H59.3235V16.0951V8.40734C59.3235 5.89038 56.7008 3.84266 53.4773 3.84266H28.1262L11.0232 0.0272481C11.0183 0.0261911 11.0132 0.0256143 11.0083 0.0245573C11.0033 0.0235002 10.9985 0.0219628 10.9934 0.0210018C10.9831 0.0189838 10.9729 0.0180228 10.9626 0.0162931C10.9468 0.0136985 10.9309 0.0110078 10.915 0.00898975C10.9006 0.00716392 10.8865 0.00601076 10.8721 0.00466541C10.8553 0.00312787 10.8387 0.0017825 10.8221 0.00101373C10.8086 0.000437155 10.7951 0.000340984 10.7816 0.000148791C10.7644 -4.3402e-05 10.7473 -0.000139474 10.7302 0.000437105C10.7175 0.000821491 10.7048 0.00178239 10.6922 0.00255116C10.6746 0.00370432 10.657 0.00495371 10.6397 0.00697174C10.6279 0.00831709 10.6162 0.0100468 10.6045 0.0116804C10.5865 0.0141789 10.5688 0.0168695 10.5512 0.0202329C10.5402 0.022347 10.5295 0.0247495 10.5187 0.0271519C10.5007 0.0311879 10.483 0.0353201 10.4653 0.0401249C10.4553 0.0429117 10.4455 0.0458908 10.4355 0.0489659C10.4177 0.0543473 10.3999 0.0600168 10.3826 0.0662631C10.3734 0.0696265 10.3644 0.0732782 10.3553 0.0768338C10.3379 0.0836566 10.3208 0.0905756 10.3041 0.0983595C10.2953 0.102299 10.287 0.106528 10.2783 0.110756C10.2618 0.118828 10.2456 0.127092 10.2298 0.136029C10.2216 0.140642 10.2136 0.145639 10.2055 0.15054C10.1903 0.159669 10.1753 0.16899 10.1609 0.178888C10.1528 0.184462 10.145 0.190324 10.1372 0.19609C10.1236 0.206084 10.1102 0.216077 10.0974 0.226648C10.0894 0.233279 10.0819 0.240198 10.0742 0.247117C10.0625 0.257591 10.0509 0.268162 10.0399 0.279213C10.0321 0.287189 10.0247 0.295357 10.0172 0.303525C10.0074 0.314192 9.99785 0.324955 9.98899 0.336006C9.98136 0.345423 9.97434 0.355225 9.96733 0.364931C9.95957 0.375598 9.95182 0.38636 9.9448 0.397411C9.93791 0.408174 9.93176 0.419225 9.92548 0.430277C9.91933 0.441135 9.9133 0.451994 9.90788 0.463141C9.90222 0.474865 9.8973 0.486877 9.89225 0.498986C9.88905 0.506769 9.88511 0.514072 9.88216 0.521952C9.88068 0.525892 9.88006 0.529736 9.87871 0.53358C9.87736 0.53752 9.87539 0.541268 9.87416 0.545208L8.81866 3.84247H5.84674C2.62965 3.84247 0.0115692 5.88192 0.00098461 8.39196C0.000861533 8.39715 0 8.40205 0 8.40714V33.3922C0 33.7901 0.414767 34.1129 0.923072 34.1129C1.43261 34.1129 1.84614 33.7901 1.84614 33.3922V11.7314C2.89278 12.4998 4.30004 12.972 5.84674 12.972H53.4773C53.4785 12.972 53.4794 12.9719 53.4805 12.9719C55.6846 12.9733 57.4773 14.3738 57.4773 16.0951V21.1406H47.3221C47.3214 21.1406 47.321 21.1407 47.3203 21.1407C47.2936 21.1407 47.267 21.1419 47.2406 21.1438C47.2112 21.1458 47.1821 21.149 47.1536 21.1532C47.1493 21.1538 47.1451 21.154 47.1408 21.1547C47.1166 21.1585 47.093 21.1635 47.0695 21.1687C47.0643 21.1698 47.059 21.1706 47.054 21.1718C47.0331 21.1768 47.0128 21.1828 46.9925 21.1888C46.9847 21.1911 46.9768 21.1931 46.9691 21.1956C46.9521 21.201 46.9357 21.2075 46.9194 21.2137C46.9085 21.2178 46.8976 21.2215 46.887 21.2258C46.8742 21.2311 46.8621 21.2372 46.8498 21.2429C46.8362 21.2493 46.8223 21.2554 46.809 21.2623C46.8 21.267 46.7917 21.2722 46.7831 21.2771C46.7674 21.286 46.7515 21.2947 46.7365 21.3044C46.7299 21.3087 46.7239 21.3134 46.7176 21.3177C46.7015 21.3287 46.6854 21.3395 46.6701 21.3514C46.6611 21.3584 46.653 21.3661 46.6445 21.3734C46.6326 21.3835 46.6203 21.3934 46.609 21.4042C46.5899 21.4223 46.572 21.4412 46.5553 21.4607C46.5549 21.461 46.5546 21.4614 46.5543 21.4617L41.6315 27.2276C41.5972 27.2678 41.5681 27.3104 41.5451 27.3547C41.5364 27.3712 41.5294 27.388 41.5223 27.4047C41.5202 27.4098 41.5175 27.4147 41.5156 27.4198C41.5087 27.4376 41.5034 27.4556 41.4983 27.4734C41.497 27.4782 41.4953 27.4828 41.494 27.4875C41.49 27.5036 41.4873 27.5199 41.4847 27.5361C41.4836 27.543 41.4818 27.5499 41.481 27.557C41.4793 27.5703 41.4789 27.5836 41.4783 27.5969C41.4777 27.6071 41.4766 27.6173 41.4766 27.6276C41.4766 27.6375 41.4777 27.6474 41.4782 27.6573C41.4788 27.6709 41.4793 27.6847 41.481 27.6983C41.4818 27.7049 41.4834 27.7116 41.4846 27.7182C41.4873 27.7347 41.49 27.7513 41.4942 27.7677C41.4953 27.7722 41.497 27.7766 41.4983 27.7811C41.5034 27.7992 41.5088 27.8173 41.5157 27.8352C41.5177 27.8403 41.5204 27.8452 41.5225 27.8504C41.5295 27.8671 41.5365 27.884 41.5452 27.9005C41.5684 27.9447 41.5974 27.9874 41.6319 28.0276L46.5546 33.7927C46.5548 33.7929 46.555 33.7931 46.5553 33.7934C46.5751 33.8164 46.5968 33.8383 46.6197 33.8593C46.6272 33.8663 46.6352 33.8727 46.6429 33.8792C46.6586 33.8926 46.6748 33.9055 46.6917 33.9179C46.7016 33.9252 46.7115 33.9323 46.7216 33.9391C46.7395 33.9511 46.7581 33.9624 46.7772 33.9733C46.7858 33.9782 46.7941 33.9836 46.8028 33.9882C46.8305 34.0029 46.8592 34.0165 46.8888 34.0288C46.8963 34.0318 46.9041 34.0344 46.9116 34.0373C46.9352 34.0465 46.9594 34.0551 46.9841 34.0627C46.9937 34.0657 47.0033 34.0683 47.013 34.071C47.0365 34.0776 47.0604 34.0833 47.0848 34.0884C47.0947 34.0905 47.1046 34.0926 47.1147 34.0945C47.1397 34.099 47.165 34.1025 47.1907 34.1053C47.2001 34.1064 47.2093 34.1078 47.2187 34.1087C47.2504 34.1115 47.2827 34.113 47.3154 34.1132C47.318 34.1132 47.3206 34.1136 47.3233 34.1136C47.3238 34.1136 47.3244 34.1135 47.325 34.1135H57.4777V39.1593C57.4777 40.8816 55.6832 42.2827 53.4777 42.2827H5.84723C3.6417 42.2827 1.84725 40.8816 1.84725 39.1593C1.84725 39.1556 1.84664 39.1519 1.84651 39.1482V36.2755C1.84651 35.8786 1.43298 35.5548 0.923441 35.5548C0.415136 35.5548 0.000369229 35.8786 0.000369229 36.2755V39.1593C0.000369229 39.1668 0.00147691 39.1741 0.00184614 39.1815C0.0172307 41.6883 2.63322 43.7241 5.84723 43.7241H53.4777C56.701 43.7241 59.3233 41.6768 59.3238 39.1601C59.3238 39.16 59.3238 39.1599 59.3238 39.1597V34.1135H60.2464C61.7731 34.1135 63.0151 33.1437 63.0151 31.9517V20.4194C63.0148 19.2274 61.7727 18.2576 60.246 18.2576ZM11.4338 1.61793L27.7216 5.25163C27.7223 5.25182 27.7232 5.25191 27.7239 5.25211L38.6403 7.68738H9.4909L11.4338 1.61793ZM57.4772 12.7707C56.4307 12.0025 55.0237 11.5304 53.4773 11.5304C53.4757 11.5304 53.4743 11.5306 53.4725 11.5306H5.84674C3.64109 11.5306 1.84664 10.1295 1.84664 8.40734C1.84664 6.68519 3.64109 5.28411 5.84674 5.28411H8.35724L7.58802 7.68738H5.84698C5.3372 7.68738 4.92391 8.01007 4.92391 8.40811C4.92391 8.80614 5.3372 9.12883 5.84698 9.12883H8.30555C8.30678 9.12883 8.30814 9.12902 8.30949 9.12902C8.31047 9.12902 8.31146 9.12883 8.31232 9.12883H45.2279C45.2291 9.12883 45.2303 9.12902 45.2314 9.12902C45.2323 9.12902 45.2333 9.12883 45.2343 9.12883H52.2455C52.7553 9.12883 53.1686 8.80614 53.1686 8.40811C53.1686 8.01007 52.7553 7.68738 52.2455 7.68738H45.3602L34.5875 5.28411H53.4772C55.6828 5.28411 57.4772 6.68519 57.4772 8.40734V12.7707ZM61.1686 31.9513C61.1686 32.3485 60.7547 32.6717 60.246 32.6717H47.8161L43.5085 27.6272L47.8161 22.5819H60.246C60.259 22.5819 60.2715 22.5808 60.2843 22.5804C60.594 22.577 60.8913 22.534 61.1686 22.4573V31.9513ZM60.246 21.1397C60.2396 21.1397 60.2334 21.1404 60.227 21.1405H59.3235V19.6991H60.246C60.7547 19.6991 61.1686 20.0222 61.1686 20.4194C61.1686 20.8166 60.7547 21.1397 60.246 21.1397Z" fill="#FF736D"/>
<path d="M51.015 24.9844C49.1486 24.9844 47.6304 26.1699 47.6304 27.6272C47.6304 29.0844 49.1486 30.2699 51.015 30.2699C52.8813 30.2699 54.3995 29.0844 54.3995 27.6272C54.3995 26.1699 52.8813 24.9844 51.015 24.9844ZM51.015 28.8284C50.1666 28.8284 49.4765 28.2896 49.4765 27.6272C49.4765 26.9648 50.1666 26.4259 51.015 26.4259C51.8633 26.4259 52.5534 26.9648 52.5534 27.6272C52.5534 28.2896 51.8633 28.8284 51.015 28.8284Z" fill="#FF736D"/>
</svg>
