<svg width="56" height="56" viewBox="0 0 56 56" fill="none" xmlns="http://www.w3.org/2000/svg">
<path d="M42.2363 4.34486C41.7611 4.34486 41.3618 4.0052 41.1892 3.56244C40.4874 1.76223 38.7357 0.482788 36.6897 0.482788C36.1557 0.482788 35.7241 0.914374 35.7241 1.44831C35.7241 1.98224 36.1557 2.41382 36.6897 2.41382C38.2866 2.41382 39.5862 3.71341 39.5862 5.31037C39.5862 6.90734 38.2866 8.20693 36.6897 8.20693C36.1557 8.20693 35.7241 8.63851 35.7241 9.17244C35.7241 9.70638 36.1557 10.138 36.6897 10.138C38.7349 10.138 40.4872 8.85851 41.1892 7.0583C41.3618 6.61555 41.7611 6.27589 42.2363 6.27589H53.069C53.6212 6.27589 54.069 6.72361 54.069 7.27589V13.9655C54.069 14.5178 53.6213 14.9655 53.069 14.9655H2.93103C2.37875 14.9655 1.93103 14.5178 1.93103 13.9655V7.27589C1.93103 6.72361 2.37875 6.27589 2.93103 6.27589H15.4483H18.3448C18.8788 6.27589 19.3103 5.84431 19.3103 5.31037C19.3103 4.77644 18.8788 4.34486 18.3448 4.34486H18.0093C17.3181 4.34486 16.8578 3.64203 17.3663 3.17386C17.8784 2.70241 18.5596 2.41382 19.3103 2.41382C20.9073 2.41382 22.2069 3.71341 22.2069 5.31037C22.2069 6.90734 20.9073 8.20693 19.3103 8.20693C18.7764 8.20693 18.3448 8.63851 18.3448 9.17244C18.3448 9.70638 18.7764 10.138 19.3103 10.138C21.9723 10.138 24.1379 7.97231 24.1379 5.31037C24.1379 2.64844 21.9723 0.482788 19.3103 0.482788C17.2651 0.482788 15.5128 1.76224 14.8108 3.56245C14.6382 4.0052 14.2389 4.34486 13.7637 4.34486H1C0.447716 4.34486 0 4.79257 0 5.34486V16.8966V54.5173C0 55.0696 0.447715 55.5173 1 55.5173H55C55.5523 55.5173 56 55.0696 56 54.5173V16.8966V5.34486C56 4.79257 55.5523 4.34486 55 4.34486H42.2363ZM54.069 52.5862C54.069 53.1385 53.6213 53.5862 53.069 53.5862H2.93103C2.37875 53.5862 1.93103 53.1385 1.93103 52.5862V17.8966C1.93103 17.3443 2.37875 16.8966 2.93103 16.8966H53.069C53.6213 16.8966 54.069 17.3443 54.069 17.8966V52.5862Z" fill="#FF736D"/>
<path d="M25.1034 2.41382C26.7004 2.41382 28 3.71341 28 5.31037C28 6.90734 26.7004 8.20693 25.1034 8.20693C24.5695 8.20693 24.1379 8.63851 24.1379 9.17244C24.1379 9.70637 24.5695 10.138 25.1034 10.138C27.7654 10.138 29.931 7.97231 29.931 5.31037C29.931 2.64844 27.7654 0.482788 25.1034 0.482788C24.5695 0.482788 24.1379 0.914374 24.1379 1.44831C24.1379 1.98224 24.5695 2.41382 25.1034 2.41382Z" fill="#FF736D"/>
<path d="M30.8965 2.41382C32.4935 2.41382 33.7931 3.71341 33.7931 5.31037C33.7931 6.90734 32.4935 8.20693 30.8965 8.20693C30.3626 8.20693 29.931 8.63851 29.931 9.17244C29.931 9.70637 30.3626 10.138 30.8965 10.138C33.5585 10.138 35.7241 7.97231 35.7241 5.31037C35.7241 2.64844 33.5585 0.482788 30.8965 0.482788C30.3626 0.482788 29.931 0.914374 29.931 1.44831C29.931 1.98224 30.3626 2.41382 30.8965 2.41382Z" fill="#FF736D"/>
<path d="M21.2414 24.6207C21.7746 24.6207 22.2069 24.1885 22.2069 23.6552C22.2069 23.122 21.7746 22.6897 21.2414 22.6897C20.7081 22.6897 20.2759 23.122 20.2759 23.6552C20.2759 24.1885 20.7081 24.6207 21.2414 24.6207Z" fill="#FF736D"/>
<path d="M28 24.6207C28.5332 24.6207 28.9655 24.1885 28.9655 23.6552C28.9655 23.122 28.5332 22.6897 28 22.6897C27.4668 22.6897 27.0345 23.122 27.0345 23.6552C27.0345 24.1885 27.4668 24.6207 28 24.6207Z" fill="#FF736D"/>
<path d="M34.7586 24.6207C35.2919 24.6207 35.7241 24.1885 35.7241 23.6552C35.7241 23.122 35.2919 22.6897 34.7586 22.6897C34.2254 22.6897 33.7931 23.122 33.7931 23.6552C33.7931 24.1885 34.2254 24.6207 34.7586 24.6207Z" fill="#FF736D"/>
<path d="M41.5172 24.6207C42.0505 24.6207 42.4828 24.1885 42.4828 23.6552C42.4828 23.122 42.0505 22.6897 41.5172 22.6897C40.984 22.6897 40.5517 23.122 40.5517 23.6552C40.5517 24.1885 40.984 24.6207 41.5172 24.6207Z" fill="#FF736D"/>
<path d="M48.2759 24.6207C48.8091 24.6207 49.2414 24.1885 49.2414 23.6552C49.2414 23.122 48.8091 22.6897 48.2759 22.6897C47.7426 22.6897 47.3103 23.122 47.3103 23.6552C47.3103 24.1885 47.7426 24.6207 48.2759 24.6207Z" fill="#FF736D"/>
<path d="M7.72414 32.3449C8.25738 32.3449 8.68966 31.9126 8.68966 31.3793C8.68966 30.8461 8.25738 30.4138 7.72414 30.4138C7.1909 30.4138 6.75862 30.8461 6.75862 31.3793C6.75862 31.9126 7.1909 32.3449 7.72414 32.3449Z" fill="#FF736D"/>
<path d="M14.4828 32.3449C15.016 32.3449 15.4483 31.9126 15.4483 31.3793C15.4483 30.8461 15.016 30.4138 14.4828 30.4138C13.9495 30.4138 13.5172 30.8461 13.5172 31.3793C13.5172 31.9126 13.9495 32.3449 14.4828 32.3449Z" fill="#FF736D"/>
<path d="M21.2414 32.3449C21.7746 32.3449 22.2069 31.9126 22.2069 31.3793C22.2069 30.8461 21.7746 30.4138 21.2414 30.4138C20.7081 30.4138 20.2759 30.8461 20.2759 31.3793C20.2759 31.9126 20.7081 32.3449 21.2414 32.3449Z" fill="#FF736D"/>
<path d="M28 32.3449C28.5332 32.3449 28.9655 31.9126 28.9655 31.3793C28.9655 30.8461 28.5332 30.4138 28 30.4138C27.4668 30.4138 27.0345 30.8461 27.0345 31.3793C27.0345 31.9126 27.4668 32.3449 28 32.3449Z" fill="#FF736D"/>
<path d="M34.7586 32.3449C35.2919 32.3449 35.7241 31.9126 35.7241 31.3793C35.7241 30.8461 35.2919 30.4138 34.7586 30.4138C34.2254 30.4138 33.7931 30.8461 33.7931 31.3793C33.7931 31.9126 34.2254 32.3449 34.7586 32.3449Z" fill="#FF736D"/>
<path d="M41.5172 32.3449C42.0505 32.3449 42.4828 31.9126 42.4828 31.3793C42.4828 30.8461 42.0505 30.4138 41.5172 30.4138C40.984 30.4138 40.5517 30.8461 40.5517 31.3793C40.5517 31.9126 40.984 32.3449 41.5172 32.3449Z" fill="#FF736D"/>
<path d="M48.2759 32.3449C48.8091 32.3449 49.2414 31.9126 49.2414 31.3793C49.2414 30.8461 48.8091 30.4138 48.2759 30.4138C47.7426 30.4138 47.3103 30.8461 47.3103 31.3793C47.3103 31.9126 47.7426 32.3449 48.2759 32.3449Z" fill="#FF736D"/>
<path d="M7.72414 39.1035C8.25738 39.1035 8.68966 38.6712 8.68966 38.1379C8.68966 37.6047 8.25738 37.1724 7.72414 37.1724C7.1909 37.1724 6.75862 37.6047 6.75862 38.1379C6.75862 38.6712 7.1909 39.1035 7.72414 39.1035Z" fill="#FF736D"/>
<path d="M14.4828 39.1035C15.016 39.1035 15.4483 38.6712 15.4483 38.1379C15.4483 37.6047 15.016 37.1724 14.4828 37.1724C13.9495 37.1724 13.5172 37.6047 13.5172 38.1379C13.5172 38.6712 13.9495 39.1035 14.4828 39.1035Z" fill="#FF736D"/>
<path d="M21.2414 39.1035C21.7746 39.1035 22.2069 38.6712 22.2069 38.1379C22.2069 37.6047 21.7746 37.1724 21.2414 37.1724C20.7081 37.1724 20.2759 37.6047 20.2759 38.1379C20.2759 38.6712 20.7081 39.1035 21.2414 39.1035Z" fill="#FF736D"/>
<path d="M28 39.1035C28.5332 39.1035 28.9655 38.6712 28.9655 38.1379C28.9655 37.6047 28.5332 37.1724 28 37.1724C27.4668 37.1724 27.0345 37.6047 27.0345 38.1379C27.0345 38.6712 27.4668 39.1035 28 39.1035Z" fill="#FF736D"/>
<path d="M34.7586 39.1035C35.2919 39.1035 35.7241 38.6712 35.7241 38.1379C35.7241 37.6047 35.2919 37.1724 34.7586 37.1724C34.2254 37.1724 33.7931 37.6047 33.7931 38.1379C33.7931 38.6712 34.2254 39.1035 34.7586 39.1035Z" fill="#FF736D"/>
<path d="M41.5172 39.1035C42.0505 39.1035 42.4828 38.6712 42.4828 38.1379C42.4828 37.6047 42.0505 37.1724 41.5172 37.1724C40.984 37.1724 40.5517 37.6047 40.5517 38.1379C40.5517 38.6712 40.984 39.1035 41.5172 39.1035Z" fill="#FF736D"/>
<path d="M48.2759 39.1035C48.8091 39.1035 49.2414 38.6712 49.2414 38.1379C49.2414 37.6047 48.8091 37.1724 48.2759 37.1724C47.7426 37.1724 47.3103 37.6047 47.3103 38.1379C47.3103 38.6712 47.7426 39.1035 48.2759 39.1035Z" fill="#FF736D"/>
<path d="M7.72414 46.8276C8.25738 46.8276 8.68966 46.3954 8.68966 45.8621C8.68966 45.3289 8.25738 44.8966 7.72414 44.8966C7.1909 44.8966 6.75862 45.3289 6.75862 45.8621C6.75862 46.3954 7.1909 46.8276 7.72414 46.8276Z" fill="#FF736D"/>
<path d="M14.4828 46.8276C15.016 46.8276 15.4483 46.3954 15.4483 45.8621C15.4483 45.3289 15.016 44.8966 14.4828 44.8966C13.9495 44.8966 13.5172 45.3289 13.5172 45.8621C13.5172 46.3954 13.9495 46.8276 14.4828 46.8276Z" fill="#FF736D"/>
<path d="M21.2414 46.8276C21.7746 46.8276 22.2069 46.3954 22.2069 45.8621C22.2069 45.3289 21.7746 44.8966 21.2414 44.8966C20.7081 44.8966 20.2759 45.3289 20.2759 45.8621C20.2759 46.3954 20.7081 46.8276 21.2414 46.8276Z" fill="#FF736D"/>
<path d="M28 46.8276C28.5332 46.8276 28.9655 46.3954 28.9655 45.8621C28.9655 45.3289 28.5332 44.8966 28 44.8966C27.4668 44.8966 27.0345 45.3289 27.0345 45.8621C27.0345 46.3954 27.4668 46.8276 28 46.8276Z" fill="#FF736D"/>
<path d="M34.7586 46.8276C35.2919 46.8276 35.7241 46.3954 35.7241 45.8621C35.7241 45.3289 35.2919 44.8966 34.7586 44.8966C34.2254 44.8966 33.7931 45.3289 33.7931 45.8621C33.7931 46.3954 34.2254 46.8276 34.7586 46.8276Z" fill="#FF736D"/>
</svg>
