<svg width="203" height="36" viewBox="0 0 203 36" fill="none" xmlns="http://www.w3.org/2000/svg">
<path d="M44.7373 2.02295H59.5745V5.84465H49.683V8.99194H54.404C56.652 8.99194 58.2257 9.44155 59.3497 10.3408C60.4737 11.24 61.1482 12.5888 61.1482 14.3873C61.1482 16.1857 60.4737 17.5346 59.1249 18.6586C57.7761 19.5578 55.9776 20.2323 53.7296 20.2323H44.7373V2.02295V2.02295ZM53.2799 16.4105C54.1792 16.4105 54.8536 16.1857 55.3032 15.9609C55.7528 15.5113 55.9776 15.0617 55.9776 14.6121C55.9776 13.2633 55.0784 12.8136 53.2799 12.8136H49.683V16.6354H53.2799V16.4105Z" fill="#FF746E"/>
<path d="M64.0693 2.02295H69.0151V12.5888L76.4337 2.02295H81.1546V19.7826H76.2089V9.44155L68.7903 19.7826H64.0693V2.02295V2.02295Z" fill="#FF746E"/>
<path d="M126.34 15.9609V23.3795H121.619V20.0074H107.007V2.02295H111.953V15.9609H118.697V2.02295H123.642V15.9609H126.34V15.9609Z" fill="#FF746E"/>
<path d="M143.651 15.9609V19.7826H129.264V2.02295H143.202V5.84465H134.209V8.99194H142.078V12.8136H134.209V16.1857H143.651V15.9609Z" fill="#FF746E"/>
<path d="M164.559 2.02295V19.7826H159.613V13.0385H152.644V20.0074H147.698V2.02295H152.644V8.76714H159.613V2.02295H164.559V2.02295Z" fill="#FF746E"/>
<path d="M183.667 6.06946H178.272V20.0074H173.326V6.06946H167.931V2.02295H183.892V6.06946H183.667Z" fill="#FF746E"/>
<path d="M199.403 2.92217C200.527 3.37179 201.427 4.27101 202.101 5.17024C202.776 6.06946 203 7.4183 203 8.76713C203 10.116 202.776 11.24 202.101 12.364C201.427 13.2633 200.527 14.1625 199.403 14.6121C198.279 15.0617 196.706 15.5113 195.132 15.5113H191.985V20.2323H187.039V2.02295H195.132C196.706 2.02295 198.279 2.47256 199.403 2.92217ZM197.155 10.5656C197.605 10.116 198.055 9.44155 198.055 8.54233C198.055 7.6431 197.83 6.96869 197.155 6.51907C196.481 6.06946 195.807 5.84465 194.907 5.84465H192.21V11.24H194.907C196.031 11.24 196.706 11.0152 197.155 10.5656Z" fill="#FF746E"/>
<path d="M16.8605 0C7.4186 0 0 7.4186 0 16.8605C0 26.3023 7.4186 33.7209 16.8605 33.7209C26.0775 33.7209 33.7209 26.3023 33.7209 16.8605C33.7209 7.4186 26.0775 0 16.8605 0ZM16.6357 26.9767C6.06977 22.4806 6.06977 16.8605 6.74419 13.7132C7.4186 10.1163 11.2403 7.4186 15.2868 8.76744C15.2868 8.76744 15.2868 8.76744 15.5116 8.76744C15.9612 7.4186 16.8605 6.06977 18.4341 4.94574C19.1085 4.94574 20.4574 5.39535 20.907 5.84496C17.3101 7.86822 15.9612 9.66667 15.2868 13.4884C12.5891 11.0155 9.44186 12.814 9.44186 15.9612C9.44186 17.3101 10.1163 21.1318 16.6357 23.8295L20.0078 25.1783C19.1085 25.8527 17.9845 26.5271 16.6357 26.9767ZM26.5271 18.2093C26.3023 18.2093 26.3023 18.2093 26.5271 18.2093C26.5271 18.4341 26.5271 18.4341 26.5271 18.6589C26.5271 18.8837 26.5271 18.8837 26.3023 19.1085C26.3023 19.3333 26.3023 19.3333 26.0775 19.5581C26.0775 19.5581 26.0775 19.7829 25.8527 19.7829C25.8527 19.7829 25.8527 19.7829 25.8527 20.0078C25.8527 20.0078 25.8527 20.2326 25.6279 20.2326C25.6279 20.2326 25.6279 20.4574 25.4031 20.4574C25.4031 20.4574 25.4031 20.4574 25.4031 20.6822C24.9535 21.5814 24.0543 22.4806 23.155 23.3798L23.6046 24.5039L18.8837 22.7054L21.1318 18.2093L21.5814 19.3333C24.9535 16.186 23.155 10.5659 18.6589 12.814C17.9845 13.4884 17.3101 14.1628 16.8605 15.062C17.0853 12.3643 17.9845 9.66667 21.1318 9.21705H21.3566C24.2791 9.44186 26.0775 11.4651 26.5271 13.7132C26.7519 14.8372 26.7519 16.4109 26.5271 18.2093Z" fill="#FF746E"/>
<path d="M102.736 6.29398C101.837 4.94514 100.713 3.82111 99.1394 2.92188C97.5657 2.02266 95.9921 1.79785 93.9688 1.79785C92.1704 1.79785 90.3719 2.24746 88.7983 2.92188C87.2246 3.82111 86.1006 4.72033 85.2014 6.29398C84.3022 7.64281 83.8525 9.21646 83.8525 11.0149C83.8525 12.8134 84.3022 14.387 85.2014 15.7358C86.1006 17.0847 87.2246 18.2087 88.7983 19.1079C90.5967 19.7823 92.1704 20.232 94.1936 20.232C95.9921 20.232 97.7905 19.7823 99.3642 19.1079C100.938 18.2087 102.062 17.3095 102.961 15.7358C103.86 14.387 104.31 12.8134 104.31 11.0149C104.085 9.21646 103.635 7.64281 102.736 6.29398ZM94.1936 15.2862C87.2246 11.4645 90.8215 5.39475 94.1936 8.76684C97.5657 5.39475 101.163 11.4645 94.1936 15.2862Z" fill="#FF746E"/>
<path d="M47.8822 30.3497H46.3086V34.3962H45.6342V30.3497H44.0605V29.6753H47.8822V30.3497Z" fill="#FF746E"/>
<path d="M52.1524 33.9469V34.6213H48.7803V29.9004H52.1524V30.5748H49.4547V31.9236H51.9276V32.5981H49.4547V34.1717H52.1524V33.9469Z" fill="#FF746E"/>
<path d="M53.7283 29.9004L54.8524 31.6988L55.9764 29.9004H56.8756L55.302 32.1485L57.1004 34.6213H56.2012L54.8524 32.8229L53.5035 34.6213H52.8291L54.6275 32.1485L53.0539 29.9004H53.7283Z" fill="#FF746E"/>
<path d="M62.0455 29.9004V34.6213H61.3711V32.5981H58.6734V34.6213H57.999V29.9004H58.6734V31.9236H61.3711V29.9004H62.0455Z" fill="#FF746E"/>
<path d="M64.5166 34.1717C64.067 33.9469 63.8422 33.7221 63.6174 33.2725C63.3926 32.8229 63.3926 32.5981 63.3926 32.1485C63.3926 31.6988 63.3926 31.2492 63.6174 31.0244C63.8422 30.5748 64.067 30.35 64.5166 30.1252C64.9662 29.9004 65.4158 29.9004 65.8654 29.9004C66.3151 29.9004 66.7647 29.9004 67.2143 30.1252C67.6639 30.35 67.8887 30.5748 68.1135 31.0244C68.3383 31.474 68.3383 31.6988 68.3383 32.3733C68.3383 32.8229 68.3383 33.2725 68.1135 33.7221C67.8887 34.1717 67.6639 34.3965 67.2143 34.6213C66.7647 34.8461 66.3151 34.8461 65.8654 34.8461C65.4158 34.6213 64.9662 34.3965 64.5166 34.1717ZM66.7647 33.7221C66.9895 33.4973 67.2143 33.2725 67.4391 33.0477C67.6639 32.8229 67.6639 32.3733 67.6639 32.1485C67.6639 31.6988 67.6639 31.474 67.4391 31.2492C67.2143 31.0244 66.9895 30.7996 66.7647 30.5748C66.5399 30.35 66.0902 30.35 65.8654 30.35C65.4158 30.35 65.191 30.35 64.9662 30.5748C64.7414 30.7996 64.5166 31.0244 64.2918 31.2492C64.067 31.474 64.067 31.9236 64.067 32.1485C64.067 32.5981 64.067 32.8229 64.2918 33.0477C64.5166 33.2725 64.7414 33.4973 64.9662 33.7221C65.191 33.9469 65.6406 33.9469 65.8654 33.9469C66.3151 33.9469 66.5399 33.9469 66.7647 33.7221Z" fill="#FF746E"/>
<path d="M73.5088 29.9004V34.6213H72.8344V30.5748H70.8111V31.9236C70.8111 32.5981 70.8111 33.0477 70.5863 33.4973C70.3615 33.9469 70.3615 34.1717 70.1367 34.3965C69.9119 34.6213 69.6871 34.6213 69.4623 34.6213C69.2375 34.6213 69.2375 34.6213 69.0127 34.6213V33.9469H69.2375C69.4623 33.9469 69.6871 33.9469 69.6871 33.7221C69.9119 33.4973 69.9119 33.2725 69.9119 33.0477C69.9119 32.8229 69.9119 32.3733 70.1367 31.9236V29.9004H73.5088V29.9004Z" fill="#FF746E"/>
<path d="M75.9834 34.1717C75.5338 33.9469 75.309 33.7221 75.0842 33.2725C74.8594 32.8229 74.8594 32.5981 74.8594 32.1485C74.8594 31.6988 74.8594 31.2492 75.0842 31.0244C75.309 30.5748 75.5338 30.35 75.9834 30.1252C76.433 29.9004 76.8826 29.9004 77.3322 29.9004C77.7819 29.9004 78.2315 29.9004 78.6811 30.1252C79.1307 30.35 79.3555 30.5748 79.5803 31.0244C79.8051 31.474 79.8051 31.6988 79.8051 32.3733C79.8051 32.8229 79.8051 33.2725 79.5803 33.7221C79.3555 34.1717 79.1307 34.3965 78.6811 34.6213C78.2315 34.8461 77.7819 34.8461 77.3322 34.8461C76.6578 34.6213 76.2082 34.3965 75.9834 34.1717ZM78.2315 33.7221C78.4563 33.4973 78.6811 33.2725 78.9059 33.0477C79.1307 32.8229 79.1307 32.3733 79.1307 32.1485C79.1307 31.6988 79.1307 31.474 78.9059 31.2492C78.6811 31.0244 78.4563 30.7996 78.2315 30.5748C78.0067 30.35 77.5571 30.35 77.3322 30.35C76.8826 30.35 76.6578 30.35 76.433 30.5748C76.2082 30.7996 75.9834 31.0244 75.7586 31.2492C75.5338 31.474 75.5338 31.9236 75.5338 32.1485C75.5338 32.5981 75.5338 32.8229 75.7586 33.0477C75.9834 33.2725 76.2082 33.4973 76.433 33.7221C76.6578 33.9469 77.1074 33.9469 77.3322 33.9469C77.5571 33.9469 77.7819 33.9469 78.2315 33.7221Z" fill="#FF746E"/>
<path d="M84.077 30.3497H81.6041V34.3962H80.9297V29.6753H84.077V30.3497Z" fill="#FF746E"/>
<path d="M85.1992 29.9004H85.8736V33.4973L88.5713 29.9004H89.2457V34.6213H88.5713V31.0244L85.8736 34.6213H85.1992V29.9004Z" fill="#FF746E"/>
<path d="M90.8193 29.9004H91.4938V33.4973L94.1914 29.9004H94.8658V34.6213H94.1914V31.0244L91.4938 34.6213H90.8193V29.9004Z" fill="#FF746E"/>
<path d="M101.611 32.5969C101.835 32.8217 101.835 33.0465 101.835 33.2713C101.835 33.4961 101.835 33.7209 101.611 33.9457C101.386 34.1705 101.161 34.3953 100.936 34.3953C100.711 34.3953 100.262 34.6201 100.037 34.6201C99.8121 34.6201 99.3625 34.6201 99.1377 34.3953C98.9129 34.3953 98.4633 34.1705 98.2385 33.9457L98.4633 33.4961C98.6881 33.7209 98.9129 33.7209 99.1377 33.9457C99.3625 33.9457 99.5873 34.1705 99.8121 34.1705C100.262 34.1705 100.487 34.1705 100.711 33.9457C100.936 33.7209 101.161 33.4961 101.161 33.2713C101.161 33.0465 101.161 32.8217 100.936 32.8217C100.711 32.5969 100.487 32.5969 100.037 32.5969H98.9129V32.1473H99.8121C100.037 32.1473 100.262 32.1473 100.487 31.9225C100.711 31.6977 100.711 31.6977 100.711 31.4729C100.711 31.2481 100.711 31.0232 100.487 30.7984C100.262 30.5736 100.037 30.5736 99.5873 30.5736C99.3625 30.5736 99.1377 30.5736 98.9129 30.5736C98.6881 30.5736 98.4633 30.7984 98.2385 30.7984L98.0137 30.3488C98.2385 30.124 98.4633 30.124 98.6881 30.124C98.9129 30.124 99.1377 30.124 99.5873 30.124C99.8121 30.124 100.262 30.124 100.487 30.3488C100.711 30.3488 100.936 30.5736 101.161 30.7984C101.386 31.0232 101.386 31.2481 101.386 31.4729C101.386 31.6977 101.386 31.9225 101.161 32.1473C100.936 32.3721 100.936 32.3721 100.711 32.5969C101.161 32.1473 101.386 32.3721 101.611 32.5969Z" fill="#FF746E"/>
<path d="M107.68 33.9466V35.5203H107.006V34.3962H103.184V35.5203H102.51V33.9466H102.735C102.959 33.9466 103.184 33.7218 103.409 33.2722C103.634 32.8226 103.634 32.1482 103.634 31.2489V29.6753H107.006V33.7218H107.68V33.9466ZM104.083 33.0474C104.083 33.497 103.859 33.7218 103.634 33.9466H106.331V30.3497H104.308V31.2489C104.083 32.1482 104.083 32.5978 104.083 33.0474Z" fill="#FF746E"/>
<path d="M109.704 34.1717C109.254 33.9469 109.03 33.7221 108.805 33.2725C108.58 32.8229 108.58 32.5981 108.58 32.1485C108.58 31.6988 108.58 31.2492 108.805 31.0244C109.03 30.5748 109.254 30.35 109.704 30.1252C110.154 29.9004 110.603 29.9004 111.053 29.9004C111.503 29.9004 111.952 29.9004 112.402 30.1252C112.851 30.35 113.076 30.5748 113.301 31.0244C113.526 31.474 113.526 31.6988 113.526 32.3733C113.526 32.8229 113.526 33.2725 113.301 33.7221C113.076 34.1717 112.851 34.3965 112.402 34.6213C111.952 34.8461 111.503 34.8461 111.053 34.8461C110.379 34.6213 109.929 34.3965 109.704 34.1717ZM111.952 33.7221C112.177 33.4973 112.402 33.2725 112.627 33.0477C112.851 32.8229 112.851 32.3733 112.851 32.1485C112.851 31.6988 112.851 31.474 112.627 31.2492C112.402 31.0244 112.177 30.7996 111.952 30.5748C111.727 30.35 111.278 30.35 111.053 30.35C110.603 30.35 110.379 30.35 110.154 30.5748C109.929 30.7996 109.704 31.0244 109.479 31.2492C109.255 31.474 109.254 31.9236 109.254 32.1485C109.254 32.5981 109.255 32.8229 109.479 33.0477C109.704 33.2725 109.929 33.4973 110.154 33.7221C110.379 33.9469 110.828 33.9469 111.053 33.9469C111.278 33.9469 111.503 33.9469 111.952 33.7221Z" fill="#FF746E"/>
<path d="M118.022 30.3497C118.472 30.5745 118.472 31.0241 118.472 31.4737C118.472 31.9234 118.247 32.373 118.022 32.5978C117.573 32.8226 117.123 33.0474 116.674 33.0474H115.55V34.3962H114.65V29.6753H116.449C117.123 29.9001 117.573 29.9001 118.022 30.3497ZM117.573 32.1482C117.798 31.9234 117.798 31.6985 117.798 31.4737C117.798 31.0241 117.573 30.7993 117.573 30.7993C117.348 30.5745 117.123 30.5745 116.674 30.5745H115.55V32.5978H116.674C116.898 32.5978 117.348 32.373 117.573 32.1482Z" fill="#FF746E"/>
<path d="M120.495 34.1717C120.046 33.9469 119.821 33.7221 119.596 33.2725C119.371 32.8229 119.371 32.5981 119.371 32.1485C119.371 31.6988 119.371 31.2492 119.596 31.0244C119.821 30.5748 120.046 30.35 120.495 30.1252C120.945 29.9004 121.394 29.9004 121.844 29.9004C122.294 29.9004 122.743 29.9004 123.193 30.1252C123.642 30.35 123.867 30.5748 124.092 31.0244C124.317 31.474 124.317 31.6988 124.317 32.3733C124.317 32.8229 124.317 33.2725 124.092 33.7221C123.867 34.1717 123.642 34.3965 123.193 34.6213C122.743 34.8461 122.294 34.8461 121.844 34.8461C121.394 34.6213 120.945 34.3965 120.495 34.1717ZM122.743 33.7221C122.968 33.4973 123.193 33.2725 123.418 33.0477C123.642 32.8229 123.642 32.3733 123.642 32.1485C123.642 31.6988 123.642 31.474 123.418 31.2492C123.193 31.0244 122.968 30.7996 122.743 30.5748C122.518 30.35 122.069 30.35 121.844 30.35C121.619 30.35 121.17 30.35 120.945 30.5748C120.72 30.7996 120.495 31.0244 120.27 31.2492C120.046 31.474 120.046 31.9236 120.046 32.1485C120.046 32.5981 120.046 32.8229 120.27 33.0477C120.495 33.2725 120.72 33.4973 120.945 33.7221C121.17 33.9469 121.619 33.9469 121.844 33.9469C122.069 33.9469 122.518 33.9469 122.743 33.7221Z" fill="#FF746E"/>
<path d="M129.262 32.5978C129.487 32.8226 129.487 33.0474 129.487 33.2722C129.487 33.7218 129.262 33.9466 129.037 34.1714C128.813 34.3962 128.363 34.3962 127.688 34.3962H125.44V29.6753H127.464C127.913 29.6753 128.363 29.6753 128.588 29.9001C128.813 30.1249 129.037 30.3497 129.037 30.7993C129.037 31.0241 129.037 31.2489 128.813 31.4737C128.588 31.6985 128.588 31.6985 128.363 31.9234C128.813 32.1482 129.262 32.373 129.262 32.5978ZM126.34 31.9234H127.688C127.913 31.9234 128.363 31.9234 128.363 31.6985C128.588 31.4737 128.588 31.4737 128.588 31.0241C128.588 30.7993 128.588 30.5745 128.363 30.3497C128.138 30.1249 127.913 30.1249 127.688 30.1249H126.34V31.9234ZM128.813 33.2722C128.813 33.0474 128.813 32.8226 128.588 32.5978C128.363 32.373 128.138 32.373 127.688 32.373H126.115V33.9466H127.688C128.588 33.9466 128.813 33.7218 128.813 33.2722Z" fill="#FF746E"/>
<path d="M134.207 31.9236C134.432 32.1485 134.657 32.5981 134.657 33.0477C134.657 33.4973 134.432 33.9469 134.207 34.1717C133.982 34.3965 133.533 34.6213 132.858 34.6213H130.835V29.9004H131.509V31.474H132.858C133.533 31.474 133.982 31.6988 134.207 31.9236ZM133.757 33.7221C133.982 33.4973 133.982 33.2725 133.982 33.0477C133.982 32.3733 133.533 32.1485 132.858 32.1485H131.509V34.1717H132.858C133.308 33.9469 133.533 33.9469 133.757 33.7221Z" fill="#FF746E"/>
<path d="M139.153 29.9001V34.621H138.478V33.2722H137.13H136.905L136.005 34.621H135.331L136.455 33.0474C136.005 32.8226 135.781 32.8226 135.781 32.373C135.556 32.1482 135.556 31.6985 135.556 31.4737C135.556 31.0241 135.781 30.5745 136.005 30.1249C136.455 29.9001 136.905 29.6753 137.354 29.6753H139.153V29.9001ZM136.23 32.373C136.455 32.5978 136.68 32.5978 137.13 32.5978H138.478V30.3497H137.13C136.68 30.3497 136.455 30.3497 136.23 30.5745C136.005 30.7993 136.005 31.0241 136.005 31.4737C136.005 31.9234 136.005 32.1482 136.23 32.373Z" fill="#FF746E"/>
<path d="M142.751 29.9004H143.425V33.4973L146.123 29.9004H146.797V34.6213H146.123V31.0244L143.425 34.6213H142.751V29.9004Z" fill="#FF746E"/>
<path d="M153.54 33.2725H151.067L150.618 34.6213H149.943L152.191 29.9004H152.866L155.114 34.6213H154.439L153.54 33.2725ZM153.315 32.8229L152.191 30.5748L151.067 32.8229H153.315Z" fill="#FF746E"/>
<path d="M157.587 32.373H156.688V34.3962H156.014V29.6753H156.688V31.6985H157.587L159.161 29.6753H159.835L158.037 31.9234L159.835 34.3962H159.161L157.587 32.373Z" fill="#FF746E"/>
<path d="M163.881 30.3497H162.308V34.3962H161.633V30.3497H160.06V29.6753H163.881V30.3497Z" fill="#FF746E"/>
<path d="M165.006 29.9004H165.68V33.4973L168.378 29.9004H169.052V34.6213H168.378V31.0244L165.68 34.6213H165.006V29.9004Z" fill="#FF746E"/>
<path d="M174.448 32.5978C174.672 32.8226 174.672 33.0474 174.672 33.2722C174.672 33.7218 174.448 33.9466 174.223 34.1714C173.998 34.3962 173.548 34.3962 172.874 34.3962H170.626V29.6753H172.649C173.099 29.6753 173.548 29.6753 173.773 29.9001C173.998 30.1249 174.223 30.3497 174.223 30.7993C174.223 31.0241 174.223 31.2489 173.998 31.4737C173.773 31.6985 173.773 31.6985 173.548 31.9234C173.998 32.1482 174.223 32.373 174.448 32.5978ZM171.3 31.9234H172.649C172.874 31.9234 173.324 31.9234 173.324 31.6985C173.548 31.4737 173.548 31.4737 173.548 31.0241C173.548 30.7993 173.548 30.5745 173.324 30.3497C173.099 30.1249 172.874 30.1249 172.649 30.1249H171.3V31.9234ZM173.998 33.2722C173.998 33.0474 173.998 32.8226 173.773 32.5978C173.548 32.373 173.324 32.373 172.874 32.373H171.3V33.9466H172.874C173.548 33.9466 173.998 33.7218 173.998 33.2722Z" fill="#FF746E"/>
<path d="M180.069 29.9004V34.6213H179.395V32.5981H176.697V34.6213H176.022V29.9004H176.697V31.9236H179.395V29.9004H180.069Z" fill="#FF746E"/>
<path d="M182.54 34.1717C182.09 33.9469 181.866 33.7221 181.641 33.2725C181.416 32.8229 181.416 32.5981 181.416 32.1485C181.416 31.6988 181.416 31.2492 181.641 31.0244C181.866 30.5748 182.09 30.35 182.54 30.1252C182.99 29.9004 183.439 29.9004 183.889 29.9004C184.339 29.9004 184.788 29.9004 185.238 30.1252C185.687 30.35 185.912 30.5748 186.137 31.0244C186.362 31.474 186.362 31.6988 186.362 32.3733C186.362 32.8229 186.362 33.2725 186.137 33.7221C185.912 34.1717 185.687 34.3965 185.238 34.6213C184.788 34.8461 184.339 34.8461 183.889 34.8461C183.214 34.6213 182.765 34.3965 182.54 34.1717ZM184.788 33.7221C185.013 33.4973 185.238 33.2725 185.463 33.0477C185.687 32.8229 185.687 32.3733 185.687 32.1485C185.687 31.6988 185.687 31.474 185.463 31.2492C185.238 31.0244 185.013 30.7996 184.788 30.5748C184.563 30.35 184.114 30.35 183.889 30.35C183.439 30.35 183.214 30.35 182.99 30.5748C182.765 30.7996 182.54 31.0244 182.315 31.2492C182.09 31.474 182.09 31.9236 182.09 32.1485C182.09 32.5981 182.09 32.8229 182.315 33.0477C182.54 33.2725 182.765 33.4973 182.99 33.7221C183.214 33.9469 183.664 33.9469 183.889 33.9469C184.114 33.9469 184.338 33.9469 184.788 33.7221Z" fill="#FF746E"/>
<path d="M188.387 34.1711C187.937 33.9463 187.712 33.7215 187.487 33.2719C187.263 32.8223 187.263 32.5975 187.263 31.9231C187.263 31.4734 187.263 31.0238 187.487 30.5742C187.712 30.1246 187.937 29.8998 188.387 29.675C188.836 29.4502 189.286 29.4502 189.736 29.4502C190.185 29.4502 190.41 29.4502 190.86 29.675C191.084 29.8998 191.534 29.8998 191.534 30.1246L191.084 31.0238C190.635 30.5742 190.185 30.5742 189.736 30.5742C189.286 30.5742 189.061 30.5742 188.836 30.799C188.612 31.0238 188.387 31.2486 188.162 31.4735C187.937 31.6983 187.937 32.1479 187.937 32.3727C187.937 32.8223 187.937 33.0471 188.162 33.2719C188.387 33.4967 188.612 33.7215 188.836 33.9463C189.061 34.1711 189.511 34.1711 189.736 34.1711C190.185 34.1711 190.635 33.9463 191.084 33.4967L191.534 33.9463C191.309 34.1711 191.084 34.3959 190.86 34.3959C190.635 34.6207 190.185 34.6207 189.736 34.6207C189.286 34.6207 188.836 34.3959 188.387 34.1711Z" fill="#FF746E"/>
<path d="M195.804 30.3497H194.23V34.3962H193.556V30.3497H191.982V29.6753H195.804V30.3497Z" fill="#FF746E"/>
<path d="M196.929 29.9004H197.603V33.4973L200.301 29.9004H200.975V34.6213H200.301V31.0244L197.603 34.6213H196.929V29.9004Z" fill="#FF746E"/>
</svg>
