<svg width="105" height="41" viewBox="0 0 105 41" fill="none" xmlns="http://www.w3.org/2000/svg">
<path fill-rule="evenodd" clip-rule="evenodd" d="M49.5341 13.1964L46.7993 26.8916H49.9053L52.6401 13.1964H49.5341Z" fill="#08869D"/>
<path fill-rule="evenodd" clip-rule="evenodd" d="M18.8408 13.1964H15.7348L13 26.8916H16.106L18.8408 13.1964Z" fill="#08869D"/>
<path fill-rule="evenodd" clip-rule="evenodd" d="M48.5272 13.1964H45.4211L39.6401 22.7016L37.814 13.1964H34.708L37.3362 26.8916H40.1947L48.5272 13.1964Z" fill="#08869D"/>
<path fill-rule="evenodd" clip-rule="evenodd" d="M64.2534 13.1964H54.1162L53.5786 16.0736H57.107L54.9439 26.8916H58.0499L60.2087 16.0736H63.7201L64.2534 13.1964Z" fill="#08869D"/>
<path fill-rule="evenodd" clip-rule="evenodd" d="M30.8466 13.1964L29.0376 22.2583L24.2848 13.1964H21.6012L18.8706 26.8916H21.8614L23.6747 17.8084L28.4147 26.8916H31.1069L33.8374 13.1964H30.8466Z" fill="#08869D"/>
<path fill-rule="evenodd" clip-rule="evenodd" d="M71.6386 13.1964H65.9428L63.208 26.8916H66.3311L68.4643 16.0736H71.1479C71.6877 16.0484 72.2145 16.2438 72.6071 16.6149C72.9078 16.9391 73.054 17.3772 73.0081 17.8169C72.8759 19.1936 71.7922 19.8287 70.3885 19.8287H68.123L71.0413 26.8916H74.1473L72.206 22.2029C74.4508 21.9144 76.1347 20.0098 76.144 17.7487C76.272 15.0932 74.3179 13.1964 71.6258 13.1964" fill="#08869D"/>
<path d="M76.7331 20.0461C76.9695 16.0609 80.2933 12.9616 84.2891 13.0004C88.4233 13.0004 91.2136 16.1332 90.9875 20.0419C90.7511 24.027 87.4273 27.1264 83.4315 27.0876C79.2973 27.0876 76.507 23.9547 76.7374 20.0461H76.7331ZM88.099 20.0461C88.2005 18.9347 87.8216 17.8329 87.0578 17.0185C86.294 16.2041 85.2181 15.7548 84.1014 15.7837C81.7063 15.7745 79.7311 17.6557 79.6258 20.0461C79.5243 21.1576 79.9032 22.2593 80.6671 23.0737C81.4309 23.8881 82.5068 24.3375 83.6235 24.3085C86.0202 24.32 87.9979 22.4382 88.1033 20.0461" fill="#08869D"/>
<rect x="0.5" y="0.5" width="104" height="40" rx="4.5" stroke="#EFEFEF"/>
</svg>
