<svg width="39" height="36" viewBox="0 0 39 36" fill="none" xmlns="http://www.w3.org/2000/svg">
<path d="M0.00114269 28.4207V25.7964C0.00114269 24.9058 0.234802 24.6745 1.10131 24.686C2.19499 24.7008 3.29029 24.7483 4.38235 24.7024C4.86838 24.6715 5.34339 24.5427 5.77946 24.3235C8.82846 22.8228 11.9635 22.6178 15.2007 23.5887C18.0209 24.4351 20.8492 25.2519 23.671 26.0966C23.8012 26.1449 23.941 26.1612 24.0787 26.1441C24.2164 26.127 24.3481 26.077 24.4629 25.9981C26.7346 24.5712 29.2351 23.7019 31.7146 22.7736C32.917 22.3192 34.1324 21.9535 35.4256 22.0814C36.0549 22.1547 36.676 22.2881 37.2803 22.48C37.5805 22.5541 37.8484 22.7255 38.043 22.9681C38.2376 23.2107 38.3482 23.5111 38.3578 23.8233C38.3924 24.1409 38.3241 24.4613 38.1632 24.7364C38.0023 25.0114 37.7574 25.2263 37.4653 25.3486C35.1173 26.4115 33.0987 28.0122 30.9519 29.3982C30.7389 29.5522 30.5708 29.7612 30.4651 30.0034C29.7138 31.6092 28.6202 32.7556 26.7671 32.9278C26.6206 32.9549 26.4705 32.9549 26.3241 32.9278C25.7496 32.7523 25.3002 32.9705 24.8328 33.2919C23.7148 34.0579 22.5611 34.7796 21.4252 35.5226C20.7178 35.9851 19.9226 36.0442 19.1227 35.9769C16.3998 35.744 13.6867 35.4225 11.0499 34.6828C9.80874 34.3051 8.58886 33.8594 7.39565 33.3477C5.73548 32.6811 3.97386 32.3093 2.1885 32.2488C1.74226 32.2308 1.29603 32.2144 0.85142 32.1816C0.286731 32.1405 0.00438803 31.8306 0.00114269 31.2499C-0.00210265 30.3068 0.00276536 29.372 0.00114269 28.4207ZM29.1021 29.5983C28.9771 29.5491 28.8571 29.4933 28.7337 29.4523C26.9488 28.8651 25.1752 28.2534 23.3789 27.6957C20.4884 26.798 17.5925 25.9205 14.6912 25.0632C13.2048 24.622 11.6957 24.3596 10.1315 24.6122C8.7724 24.8464 7.45198 25.2697 6.20785 25.8702C5.50479 26.1952 4.73396 26.3421 3.96207 26.2983C3.18481 26.2655 2.40432 26.2983 1.58487 26.2983V26.8002C1.58487 27.9204 1.60758 29.0423 1.57188 30.1609C1.5589 30.5988 1.70494 30.6726 2.09763 30.671C4.12971 30.6594 6.14444 31.0494 8.02848 31.8191C9.12093 32.2896 10.236 32.7046 11.3696 33.0623C13.9918 33.825 16.6968 34.0957 19.4066 34.3023C19.9371 34.3368 20.4633 34.1869 20.8979 33.8775C21.5972 33.4084 22.2999 32.9475 22.9992 32.4817C23.0787 32.4276 23.1469 32.357 23.2605 32.2636C20.2959 31.7584 17.3929 31.2631 14.4981 30.771C13.909 30.671 13.5748 30.279 13.6591 29.7869C13.7435 29.2949 14.1687 29.0472 14.7528 29.1489C18.5336 29.8049 22.3193 30.4282 26.0904 31.1384C27.2993 31.3566 28.3118 30.9629 29.1021 29.5983ZM36.6799 23.8577C35.3899 23.5559 34.1908 23.5461 33.0192 23.984C31.614 24.5089 30.2104 25.0419 28.8246 25.6144C27.9451 25.9768 27.0965 26.4197 26.1521 26.8641C26.3419 26.9412 26.4247 26.9806 26.5123 27.0118C27.4859 27.3579 28.4774 27.6941 29.4526 28.0549C29.5794 28.1125 29.7192 28.1342 29.8573 28.1178C29.9953 28.1013 30.1263 28.0473 30.2363 27.9614C32.315 26.541 34.3612 25.0649 36.6799 23.8577Z" fill="white"/>
<path d="M34.3397 6.37021C34.3449 7.57224 34.052 8.75641 33.4878 9.81456C32.4787 11.7979 31.1917 13.6237 29.6664 15.2353C28.0535 16.9804 26.3448 18.6354 24.6686 20.3198C24.5788 20.4185 24.47 20.4976 24.3489 20.5523C24.2278 20.607 24.0968 20.6361 23.9642 20.6377C23.8315 20.6394 23.6999 20.6137 23.5775 20.5621C23.455 20.5106 23.3443 20.4342 23.252 20.3378C20.8959 18.1613 18.6258 15.8996 16.6705 13.336C15.6304 11.9714 14.7006 10.5477 14.0304 8.94034C12.5132 5.32378 14.9537 1.04296 18.8433 0.257324C20.5584 -0.0903909 22.1486 0.25732 23.609 1.19713C23.8881 1.37755 24.0536 1.34638 24.3133 1.18564C26.473 -0.144531 28.7107 -0.282279 30.9289 0.965885C33.1243 2.20093 34.2278 4.15927 34.3397 6.37021ZM23.9547 18.7666C24.0796 18.6616 24.1737 18.5861 24.2613 18.5058C26.0836 16.8346 27.7878 15.0364 29.3614 13.1244C30.5232 11.7007 31.6023 10.218 32.3422 8.51228C32.6077 7.9269 32.7451 7.29053 32.7451 6.64659C32.7451 6.00265 32.6077 5.36629 32.3422 4.78091C31.0295 1.73512 27.3752 0.808417 24.6897 2.83894C23.9952 3.36379 23.833 3.35888 23.1368 2.81107C22.3169 2.14876 21.3058 1.7745 20.2566 1.74496C16.7338 1.64327 13.9785 5.4304 15.7342 8.86982C16.5951 10.5132 17.6358 12.0537 18.8368 13.4623C20.4219 15.3455 22.1318 17.1177 23.9547 18.7666Z" fill="white"/>
</svg>
