<svg width="36" height="27" viewBox="0 0 36 27" fill="none" xmlns="http://www.w3.org/2000/svg">
<path d="M33.0275 20.3576C33.7332 20.3576 34.416 20.3576 35.0973 20.3576C35.7786 20.3576 36.0117 20.622 35.9995 21.3679C35.9715 22.8738 35.4074 24.3069 34.4293 25.3564C33.4513 26.406 32.1383 26.9874 30.7748 26.9747C22.256 26.9915 13.7366 26.9915 5.21677 26.9747C3.86005 26.9849 2.55382 26.4069 1.57863 25.3648C0.60344 24.3228 0.0370809 22.8998 0.00119863 21.4016C-0.018615 20.6136 0.203908 20.3559 0.915675 20.3526C1.62744 20.3492 2.27825 20.3526 2.99916 20.3526V1.59594C2.99916 0.671574 3.19272 0.456055 4.03099 0.456055H32.0582C32.7821 0.456055 33.0077 0.710308 33.0077 1.52018C33.0077 7.65117 33.0077 13.7805 33.0077 19.9081C33.0123 20.0428 33.0199 20.1791 33.0275 20.3576ZM31.479 20.3223V2.13809H4.52786V20.3223H31.479ZM34.3946 22.0363H1.58324C1.63506 22.2434 1.66402 22.4185 1.71889 22.5835C1.9835 23.3949 2.47027 24.0951 3.11157 24.5869C3.75288 25.0788 4.5169 25.3378 5.29754 25.328C9.97153 25.328 14.6455 25.328 19.3195 25.328C23.1044 25.328 26.8888 25.328 30.6727 25.328C32.5032 25.328 34.1386 23.9069 34.3946 22.0363Z" fill="white"/>
<path d="M15.651 5.50046C16.3937 5.50649 17.1177 5.75806 17.7299 6.22277C17.8029 6.29403 17.8969 6.33337 17.9943 6.33337C18.0917 6.33337 18.1858 6.29403 18.2587 6.22277C19.5756 5.27483 20.9458 5.22264 22.2718 6.14027C23.5978 7.0579 24.1342 8.43015 23.9742 10.1307C23.7517 12.498 22.5324 14.1919 20.8513 15.5186C20.1808 16.0204 19.4627 16.4399 18.7099 16.7697C18.3357 16.9448 17.9191 16.9756 17.5272 16.8572C14.8005 15.8065 12.8146 13.8871 12.1104 10.6931C11.577 8.27693 12.8405 6.09481 14.9346 5.59811C15.1693 5.54423 15.4117 5.53245 15.651 5.50046ZM22.4973 9.8613C22.5141 8.03446 21.2277 6.83902 19.8149 7.26332C19.3759 7.39465 18.9736 7.75497 18.6108 8.08498C18.1307 8.52275 17.7543 8.52274 17.3443 8.00752C17.089 7.66247 16.7489 7.40629 16.365 7.26978C15.981 7.13326 15.5695 7.12225 15.18 7.23806C14.7957 7.31853 14.4409 7.52045 14.1584 7.81931C13.876 8.11817 13.6781 8.50115 13.5888 8.92179C13.3267 10.0213 13.6193 11.0365 14.1406 11.966C14.93 13.3786 16.0686 14.3535 17.4129 15.0691C17.6016 15.1805 17.8123 15.2388 18.0263 15.2388C18.2403 15.2388 18.451 15.1805 18.6398 15.0691C19.6431 14.5494 20.537 13.8038 21.2643 12.8802C21.9822 11.971 22.4699 10.9305 22.4958 9.8613H22.4973Z" fill="white"/>
</svg>
