<svg width="14" height="14" viewBox="0 0 14 14" fill="none" xmlns="http://www.w3.org/2000/svg">
<g clip-path="url(#clip0)">
<path d="M13.0691 7.18133C13.0127 7.06608 13.0127 6.9339 13.0691 6.81868L13.5912 5.7505C13.8819 5.15574 13.6516 4.44686 13.0668 4.13659L12.0166 3.57933C11.9032 3.51923 11.8256 3.41226 11.8034 3.28596L11.598 2.11486C11.4836 1.46282 10.8805 1.02467 10.2251 1.11739L9.04789 1.28391C8.92083 1.30185 8.79518 1.261 8.70301 1.17183L7.84849 0.345176C7.37269 -0.115127 6.6273 -0.115154 6.15152 0.345176L5.29698 1.17191C5.20478 1.26111 5.07914 1.30188 4.9521 1.28399L3.77487 1.11747C3.11931 1.02469 2.51638 1.4629 2.40201 2.11494L2.1966 3.28599C2.17443 3.41231 2.09674 3.51925 1.98346 3.57938L0.933191 4.13665C0.348421 4.44689 0.118079 5.15583 0.408796 5.75058L0.930921 6.81873C0.987249 6.93398 0.987249 7.06616 0.930921 7.18139L0.408768 8.24954C0.118051 8.84429 0.348394 9.55318 0.933164 9.86344L1.98343 10.4207C2.09674 10.4808 2.17443 10.5878 2.1966 10.7141L2.40201 11.8852C2.50613 12.4788 3.0151 12.895 3.60007 12.895C3.65768 12.895 3.71614 12.8909 3.7749 12.8826L4.95212 12.7161C5.07908 12.6981 5.20481 12.739 5.29701 12.8282L6.15152 13.6548C6.38947 13.885 6.69468 14.0001 7 14C7.30523 14 7.61063 13.885 7.84847 13.6548L8.70301 12.8282C8.79521 12.739 8.92088 12.6983 9.04789 12.7161L10.2251 12.8826C10.8808 12.9754 11.4836 12.5372 11.598 11.8852L11.8034 10.7141C11.8256 10.5878 11.9033 10.4808 12.0166 10.4207L13.0668 9.86344C13.6516 9.5532 13.8819 8.84426 13.5912 8.24951L13.0691 7.18133ZM12.6884 9.15013L11.6381 9.7074C11.3032 9.8851 11.0736 10.2011 11.0081 10.5745L10.8027 11.7456C10.764 11.9662 10.56 12.1144 10.3382 12.0831L9.16099 11.9166C8.78556 11.8634 8.41407 11.9842 8.14159 12.2478L7.28705 13.0744C7.1261 13.2301 6.87391 13.2301 6.71291 13.0744L5.8584 12.2478C5.62811 12.025 5.32706 11.9043 5.01277 11.9043C4.95519 11.9043 4.89714 11.9083 4.839 11.9165L3.66178 12.0831C3.44013 12.1144 3.23601 11.9662 3.19729 11.7456L2.99186 10.5745C2.92635 10.2011 2.69672 9.88502 2.36184 9.70737L1.31157 9.1501C1.11371 9.04513 1.03578 8.8053 1.13414 8.60408L1.65629 7.5359C1.82276 7.19531 1.82276 6.80468 1.65629 6.46408L1.13414 5.3959C1.03578 5.19468 1.11371 4.95485 1.31157 4.84988L2.36184 4.29261C2.69669 4.11491 2.92635 3.79887 2.99184 3.42547L3.19724 2.25439C3.23596 2.03378 3.43989 1.88558 3.66173 1.91692L4.83895 2.08344C5.21424 2.13657 5.58587 2.01579 5.85835 1.75223L6.71289 0.925573C6.87383 0.769878 7.12602 0.769878 7.28702 0.925573L8.14153 1.75223C8.41401 2.01582 8.78559 2.13657 9.16093 2.08344L10.3382 1.91692C10.5598 1.88555 10.7639 2.03378 10.8026 2.25439L11.008 3.42549C11.0736 3.7989 11.3032 4.11496 11.6381 4.29261L12.6883 4.84988C12.8862 4.95485 12.9641 5.19468 12.8658 5.3959L12.3436 6.46406C12.1771 6.80462 12.1771 7.19531 12.3436 7.53587L12.8658 8.60402C12.9642 8.8053 12.8862 9.04516 12.6884 9.15013Z" fill="#FF736D"/>
<path d="M9.94997 4.05001C9.79233 3.89235 9.53667 3.89235 9.379 4.05001L4.05003 9.379C3.89236 9.53667 3.89236 9.7923 4.05003 9.94996C4.12886 10.0288 4.23219 10.0682 4.33549 10.0682C4.4388 10.0682 4.54216 10.0288 4.62096 9.94996L9.94994 4.621C10.1077 4.46331 10.1077 4.2077 9.94997 4.05001Z" fill="#FF736D"/>
<path d="M5.38508 3.36642C4.56882 3.36642 3.90472 4.03052 3.90472 4.84678C3.90472 5.66304 4.56882 6.32713 5.38508 6.32713C6.20134 6.32713 6.86543 5.66304 6.86543 4.84678C6.86543 4.03052 6.20134 3.36642 5.38508 3.36642ZM5.38508 5.51965C5.01405 5.51965 4.71221 5.2178 4.71221 4.84675C4.71221 4.47573 5.01405 4.17388 5.38508 4.17388C5.7561 4.17388 6.05798 4.47573 6.05798 4.84675C6.05795 5.2178 5.7561 5.51965 5.38508 5.51965Z" fill="#FF736D"/>
<path d="M8.61491 7.67288C7.79865 7.67288 7.13455 8.33698 7.13455 9.15324C7.13455 9.9695 7.79865 10.6336 8.61491 10.6336C9.43117 10.6336 10.0953 9.9695 10.0953 9.15324C10.0953 8.33698 9.43117 7.67288 8.61491 7.67288ZM8.61491 9.82611C8.24388 9.82611 7.94201 9.52426 7.94201 9.15324C7.94201 8.78221 8.24385 8.48037 8.61491 8.48037C8.98593 8.48037 9.28778 8.78221 9.28778 9.15324C9.28778 9.52426 8.98593 9.82611 8.61491 9.82611Z" fill="#FF736D"/>
</g>
<defs>
<clipPath id="clip0">
<rect width="14" height="14" fill="white"/>
</clipPath>
</defs>
</svg>
