<svg width="203" height="32" viewBox="0 0 203 32" fill="none" xmlns="http://www.w3.org/2000/svg">
<path d="M43.1269 7.31586H58.1583V11.2504H48.1374V14.1399H52.779C54.9614 14.1399 56.6213 14.601 57.7894 15.5231C58.9575 16.4453 59.5415 17.7671 59.5415 19.5192C59.5415 21.3328 58.896 22.7468 57.5742 23.7612C56.2832 24.7756 54.4389 25.2981 52.1027 25.2981H43.0962V7.31586H43.1269ZM51.7953 21.6402C52.656 21.6402 53.3015 21.4558 53.7626 21.1176C54.1929 20.7795 54.4389 20.2877 54.4389 19.6422C54.4389 18.3819 53.5782 17.7364 51.826 17.7364H48.1681V21.6095H51.7953V21.6402Z" fill="#FF736D"/>
<path d="M62.646 7.31587H67.6565V17.8593L75.0953 7.28513H79.8905V25.2674H74.8801V14.7239L67.472 25.2674H62.6767V7.31587H62.646Z" fill="#FF736D"/>
<path d="M125.599 21.2713V28.6794H120.958V25.2981H106.203V7.31586H111.214V21.2713H118.13V7.31586H123.14V21.2713H125.599Z" fill="#FF736D"/>
<path d="M142.905 21.3635V25.2981H128.458V7.31586H142.567V11.2504H133.499V14.2936H141.491V18.1052H133.499V21.3943H142.905V21.3635Z" fill="#FF736D"/>
<path d="M163.992 7.31586V25.2981H158.89V18.2897H151.943V25.2981H146.84V7.31586H151.943V14.0784H158.89V7.31586H163.992Z" fill="#FF736D"/>
<path d="M183.388 11.3427H177.886V25.2981H172.876V11.3427H167.343V7.31586H183.388V11.3427Z" fill="#FF736D"/>
<path d="M199.25 8.11506C200.449 8.66836 201.371 9.43684 202.017 10.4205C202.662 11.4349 203 12.6029 203 13.9555C203 15.308 202.662 16.4761 202.017 17.4904C201.371 18.4741 200.449 19.2426 199.25 19.7959C198.051 20.3492 196.637 20.5951 195.008 20.5951H191.873V25.2981H186.77V7.31586H195.008C196.637 7.31586 198.051 7.56176 199.25 8.11506ZM197.068 15.892C197.59 15.4309 197.867 14.7854 197.867 13.9555C197.867 13.1255 197.59 12.48 197.068 11.9882C196.545 11.5271 195.746 11.2812 194.701 11.2812H191.873V16.5375H194.701C195.746 16.5683 196.545 16.3531 197.068 15.892Z" fill="#FF736D"/>
<path d="M15.9535 0C7.13143 0 0 7.13143 0 15.9535C0 24.7756 7.13143 31.907 15.9535 31.907C24.7756 31.907 31.907 24.7756 31.907 15.9535C31.907 7.13143 24.7449 0 15.9535 0ZM15.7998 25.7592C5.6867 21.4558 5.80966 16.0765 6.45518 13.1563C7.19291 9.74425 10.8201 7.1007 14.6625 8.39174C14.6932 8.39174 14.7547 8.42247 14.7854 8.45321C15.2465 7.1007 16.1072 5.8404 17.4597 4.85676C18.1975 4.91824 19.3041 5.31784 19.8266 5.80966C16.5376 7.654 15.1236 9.3139 14.5088 12.8796C12.0189 10.5435 8.91429 12.2956 8.91429 15.2465C8.91429 16.4453 9.46759 20.1033 15.7998 22.8083L19.0581 24.1916C18.1052 24.6834 17.0294 25.2367 15.7998 25.7592ZM25.1445 17.2445C25.1445 17.2753 25.1445 17.306 25.1137 17.3368C25.083 17.429 25.0522 17.5212 25.0215 17.6134C25.0215 17.6442 24.9908 17.6749 24.9908 17.7056C24.96 17.8286 24.9293 17.9208 24.8678 18.0438V18.0745C24.8063 18.1975 24.7756 18.3204 24.7141 18.4434C24.7141 18.4434 24.7141 18.4741 24.6834 18.4741C24.6526 18.5663 24.5912 18.6893 24.5297 18.7815C24.4989 18.843 24.4682 18.8737 24.4682 18.9352C24.4375 18.9967 24.4067 19.0582 24.3452 19.1504C24.3145 19.2118 24.2838 19.2733 24.2223 19.3348C24.1916 19.3655 24.1608 19.427 24.1608 19.4578C23.6383 20.3492 22.9005 21.2406 21.9169 22.0706L22.4087 23.2386L17.8901 21.5787L19.9803 17.3982L20.4414 18.5356C23.7305 15.5847 21.9783 10.2053 17.5827 12.3571C16.9679 12.7874 16.3839 13.4329 15.892 14.2936C16.1687 11.6193 16.9372 9.16021 19.9496 8.79134C20.0418 8.79134 20.1647 8.79134 20.257 8.79134C22.962 8.9143 24.6526 11.0045 25.1137 13.1255C25.3904 14.2321 25.5441 15.6769 25.1445 17.2445Z" fill="#FF736D"/>
<path d="M101.715 11.4964C100.854 10.0824 99.6556 8.97576 98.1494 8.14581C96.6432 7.3466 94.9219 6.94699 93.016 6.94699C91.1102 6.94699 89.4196 7.3466 87.8826 8.14581C86.3764 8.94502 85.1776 10.0516 84.3169 11.4964C83.4562 12.9103 83.0259 14.5088 83.0259 16.2916C83.0259 18.0745 83.4562 19.6729 84.3169 21.0869C85.1776 22.5009 86.3764 23.6075 87.8826 24.4375C89.3888 25.2367 91.1102 25.6363 93.016 25.6363C94.9219 25.6363 96.6125 25.2367 98.1494 24.4375C99.6556 23.6382 100.854 22.5316 101.715 21.0869C102.576 19.6729 103.006 18.0745 103.006 16.2916C103.006 14.5088 102.576 12.9103 101.715 11.4964ZM93.0468 20.5029C85.9461 16.6912 89.6655 10.5127 93.0468 13.894C96.4281 10.5127 100.147 16.6912 93.0468 20.5029Z" fill="#FF736D"/>
</svg>
