<svg width="189" height="30" viewBox="0 0 189 30" fill="none" xmlns="http://www.w3.org/2000/svg">
<path d="M40.1661 6.78871H54.1508V10.4488H44.8343V13.1503H49.1846C51.2108 13.1503 52.7667 13.5807 53.8528 14.4415C54.3966 14.8884 54.8267 15.4573 55.1092 16.1019C55.3913 16.7466 55.517 17.4487 55.4767 18.1512C55.514 18.9106 55.3685 19.6678 55.0521 20.3592C54.7358 21.0506 54.258 21.6558 53.6591 22.1241C52.431 23.0776 50.7241 23.5544 48.539 23.5544H40.1661V6.78871ZM48.2311 20.1377C48.8752 20.1772 49.5142 20.0026 50.0487 19.6411C50.2543 19.4812 50.4182 19.2739 50.5265 19.0369C50.6343 18.8 50.6834 18.5404 50.6695 18.2804C50.6695 17.0984 49.8566 16.5074 48.2311 16.5074H44.8343V20.1228L48.2311 20.1377Z" fill="white"/>
<path d="M58.3223 6.78871H62.9905V16.6018L69.9034 6.76884H74.3729V23.5544H69.7097V13.7264L62.7968 23.5544H58.3273L58.3223 6.78871Z" fill="white"/>
<path d="M116.938 19.7801V26.6682H112.607V23.5544H98.8758V6.78871H103.539V19.7801H109.995V6.78871H114.658V19.7801H116.938Z" fill="white"/>
<path d="M133.063 19.8745V23.5544H119.614V6.78871H132.75V10.4488H124.307V13.2695H131.757V16.8104H124.307V19.8745H133.063Z" fill="white"/>
<path d="M152.679 6.78871V23.5544H147.941V17.0041H141.485V23.5544H136.748V6.78871H141.485V13.0808H147.941V6.78871H152.679Z" fill="white"/>
<path d="M170.741 10.5431H165.626V23.5544H160.957V10.5431H155.813V6.78871H170.741V10.5431Z" fill="white"/>
<path d="M185.505 7.54355C186.558 7.99135 187.456 8.7392 188.087 9.69389C188.707 10.6766 189.023 11.8201 188.996 12.9815C189.038 14.1319 188.728 15.2676 188.106 16.2367C187.485 17.2059 186.583 17.9622 185.52 18.4045C184.264 18.9344 182.91 19.1901 181.547 19.1544H178.627V23.5544H173.894V6.7887H181.547C182.905 6.75409 184.255 7.01153 185.505 7.54355ZM183.469 14.7891C183.722 14.5638 183.92 14.284 184.049 13.9709C184.178 13.6578 184.234 13.3195 184.214 12.9815C184.233 12.6421 184.176 12.3028 184.047 11.9883C183.918 11.6738 183.721 11.3921 183.469 11.1639C182.837 10.6908 182.056 10.4616 181.269 10.5183H178.637V15.4248H181.284C182.065 15.4785 182.839 15.2532 183.469 14.7891Z" fill="white"/>
<path d="M14.8587 8.30556e-07C11.9207 -0.000981447 9.04841 0.869343 6.60507 2.50089C4.16172 4.13244 2.25711 6.4519 1.13211 9.166C0.00710234 11.8801 -0.287762 14.8668 0.284811 17.7485C0.857384 20.6302 2.27168 23.2773 4.34881 25.3551C6.42594 27.4329 9.07259 28.8481 11.9541 29.4216C14.8355 29.9952 17.8224 29.7013 20.5369 28.5772C23.2513 27.4532 25.5714 25.5493 27.2038 23.1065C28.8362 20.6637 29.7074 17.7917 29.7074 14.8537C29.7074 10.9151 28.1432 7.13778 25.3586 4.35231C22.5741 1.56684 18.7973 0.00131765 14.8587 8.30556e-07ZM14.7345 23.9566C5.29887 19.9837 5.44786 14.953 6.03883 12.2316C6.72415 9.05823 10.1061 6.60496 13.6767 7.76207L13.781 7.80676C14.2373 6.45697 15.1058 5.28441 16.2641 4.45463C17.0638 4.53244 17.8249 4.83551 18.4591 5.32866C15.4099 7.04198 14.0889 8.60135 13.493 11.9038C11.1639 9.73859 8.29345 11.3625 8.29842 14.0989C8.29842 15.2311 8.81986 18.6329 14.7047 21.1557L17.7341 22.442C16.7657 23.0069 15.764 23.5127 14.7345 23.9566ZM23.4153 16.0406C23.4153 16.0704 23.4153 16.0952 23.4153 16.125L23.3409 16.3882C23.3303 16.4157 23.322 16.4439 23.316 16.4727C23.2813 16.577 23.2465 16.6813 23.2068 16.7855V16.8104C23.1621 16.9296 23.1174 17.0487 23.0627 17.1679V17.2077C23.0181 17.302 22.9734 17.4013 22.9237 17.5007C22.874 17.6 22.884 17.5851 22.8591 17.6298C22.8343 17.6745 22.7946 17.7589 22.7598 17.8235L22.6555 18.0022C22.6555 18.042 22.6108 18.0817 22.586 18.1214C22.0243 19.0366 21.3221 19.8578 20.5052 20.5548L20.9521 21.6424L16.7607 20.1079L18.7174 16.2144L19.1544 17.2722C22.2036 14.521 20.5797 9.51512 16.4975 11.5115C15.8412 11.9842 15.2997 12.5987 14.9133 13.3092C15.1815 10.8262 15.8817 8.52685 18.6776 8.19412C18.7719 8.18667 18.8665 8.18667 18.9607 8.19412C21.4835 8.31828 23.0478 10.265 23.4849 12.2316C23.7616 13.4891 23.7378 14.7941 23.4153 16.0406Z" fill="white"/>
<path d="M94.6993 10.6871C93.8973 9.36633 92.7481 8.29102 91.3769 7.57832C89.8946 6.83703 88.2597 6.45111 86.602 6.45111C84.9443 6.45111 83.3094 6.83703 81.8271 7.57832C80.445 8.30472 79.2874 9.39514 78.4799 10.7317C77.6724 12.0682 77.2453 13.6001 77.2453 15.1616C77.2453 16.7232 77.6724 18.255 78.4799 19.5916C79.2874 20.9281 80.445 22.0185 81.8271 22.7449C83.3104 23.4832 84.9448 23.8675 86.602 23.8675C88.2592 23.8675 89.8936 23.4832 91.3769 22.7449C92.401 22.1855 93.3023 21.4259 94.0269 20.5111C94.7509 19.5964 95.2843 18.5452 95.5942 17.4203C95.9041 16.2953 95.9845 15.1195 95.8311 13.9628C95.6771 12.8061 95.2922 11.6921 94.6993 10.6871ZM86.6392 19.0849C80.0392 15.539 83.4957 9.78329 86.6392 12.9269C89.7778 9.77832 93.2343 15.5341 86.6392 19.0849Z" fill="white"/>
</svg>
